<svg width="28" height="28" viewBox="0 0 28 28" fill="none" xmlns="http://www.w3.org/2000/svg">
<path d="M0 2C0 1.46957 0.210714 0.960859 0.585786 0.585786C0.960859 0.210714 1.46957 0 2 0H6C6.53043 0 7.03914 0.210714 7.41421 0.585786C7.78929 0.960859 8 1.46957 8 2V6C8 6.53043 7.78929 7.03914 7.41421 7.41421C7.03914 7.78929 6.53043 8 6 8H2C1.46957 8 0.960859 7.78929 0.585786 7.41421C0.210714 7.03914 0 6.53043 0 6V2ZM10 2C10 1.46957 10.2107 0.960859 10.5858 0.585786C10.9609 0.210714 11.4696 0 12 0H16C16.5304 0 17.0391 0.210714 17.4142 0.585786C17.7893 0.960859 18 1.46957 18 2V6C18 6.53043 17.7893 7.03914 17.4142 7.41421C17.0391 7.78929 16.5304 8 16 8H12C11.4696 8 10.9609 7.78929 10.5858 7.41421C10.2107 7.03914 10 6.53043 10 6V2ZM20 2C20 1.46957 20.2107 0.960859 20.5858 0.585786C20.9609 0.210714 21.4696 0 22 0H26C26.5304 0 27.0391 0.210714 27.4142 0.585786C27.7893 0.960859 28 1.46957 28 2V6C28 6.53043 27.7893 7.03914 27.4142 7.41421C27.0391 7.78929 26.5304 8 26 8H22C21.4696 8 20.9609 7.78929 20.5858 7.41421C20.2107 7.03914 20 6.53043 20 6V2ZM0 12C0 11.4696 0.210714 10.9609 0.585786 10.5858C0.960859 10.2107 1.46957 10 2 10H6C6.53043 10 7.03914 10.2107 7.41421 10.5858C7.78929 10.9609 8 11.4696 8 12V16C8 16.5304 7.78929 17.0391 7.41421 17.4142C7.03914 17.7893 6.53043 18 6 18H2C1.46957 18 0.960859 17.7893 0.585786 17.4142C0.210714 17.0391 0 16.5304 0 16V12ZM10 12C10 11.4696 10.2107 10.9609 10.5858 10.5858C10.9609 10.2107 11.4696 10 12 10H16C16.5304 10 17.0391 10.2107 17.4142 10.5858C17.7893 10.9609 18 11.4696 18 12V16C18 16.5304 17.7893 17.0391 17.4142 17.4142C17.0391 17.7893 16.5304 18 16 18H12C11.4696 18 10.9609 17.7893 10.5858 17.4142C10.2107 17.0391 10 16.5304 10 16V12ZM20 12C20 11.4696 20.2107 10.9609 20.5858 10.5858C20.9609 10.2107 21.4696 10 22 10H26C26.5304 10 27.0391 10.2107 27.4142 10.5858C27.7893 10.9609 28 11.4696 28 12V16C28 16.5304 27.7893 17.0391 27.4142 17.4142C27.0391 17.7893 26.5304 18 26 18H22C21.4696 18 20.9609 17.7893 20.5858 17.4142C20.2107 17.0391 20 16.5304 20 16V12ZM0 22C0 21.4696 0.210714 20.9609 0.585786 20.5858C0.960859 20.2107 1.46957 20 2 20H6C6.53043 20 7.03914 20.2107 7.41421 20.5858C7.78929 20.9609 8 21.4696 8 22V26C8 26.5304 7.78929 27.0391 7.41421 27.4142C7.03914 27.7893 6.53043 28 6 28H2C1.46957 28 0.960859 27.7893 0.585786 27.4142C0.210714 27.0391 0 26.5304 0 26V22ZM10 22C10 21.4696 10.2107 20.9609 10.5858 20.5858C10.9609 20.2107 11.4696 20 12 20H16C16.5304 20 17.0391 20.2107 17.4142 20.5858C17.7893 20.9609 18 21.4696 18 22V26C18 26.5304 17.7893 27.0391 17.4142 27.4142C17.0391 27.7893 16.5304 28 16 28H12C11.4696 28 10.9609 27.7893 10.5858 27.4142C10.2107 27.0391 10 26.5304 10 26V22ZM20 22C20 21.4696 20.2107 20.9609 20.5858 20.5858C20.9609 20.2107 21.4696 20 22 20H26C26.5304 20 27.0391 20.2107 27.4142 20.5858C27.7893 20.9609 28 21.4696 28 22V26C28 26.5304 27.7893 27.0391 27.4142 27.4142C27.0391 27.7893 26.5304 28 26 28H22C21.4696 28 20.9609 27.7893 20.5858 27.4142C20.2107 27.0391 20 26.5304 20 26V22Z" fill="#C4C4C4"/>
</svg>
