<svg width="40" height="24" viewBox="0 0 40 24" fill="none" xmlns="http://www.w3.org/2000/svg">
<path d="M5.16671 0.0625169C3.64724 0.125034 2.50764 0.312584 1.87453 0.562652C1.43135 0.750203 0.798242 1.31285 0.544998 1.75047C0.10182 2.50068 -0.0881132 3.50095 0.038509 4.31367C0.160482 4.89454 0.429938 5.43529 0.821579 5.88514C1.21322 6.33499 1.7142 6.67919 2.2775 6.88544C2.84079 7.09168 3.44792 7.15319 4.04189 7.06421C4.63587 6.97523 5.1972 6.73866 5.6732 6.37672C6.43293 5.75155 7.50922 3.6885 8.45888 1.1253C8.71213 0.437618 8.71213 0.187551 8.58551 0.125034C8.45888 0.0625169 5.73651 0 5.16671 0.0625169ZM20.9312 0.0625169C19.3484 0.250068 17.8922 1.18782 16.9426 2.50068L4.09042 23.2563C4.02711 23.4438 4.02711 23.4438 4.15373 23.5689C4.28035 23.6939 4.34366 23.6939 6.11637 23.6939C7.69915 23.6314 7.88908 23.6314 8.45888 23.5064C9.91504 23.1313 11.0546 22.256 11.8777 21.0057C12.8273 19.6303 24.6665 0.437618 24.7298 0.312584L24.6032 0.125034C24.5399 0 24.35 0 22.9571 0L20.9312 0.0625169ZM36.3158 0.0625169C34.9229 0.250068 33.6567 0.875237 32.707 1.87551L25.8694 12.7534L19.3484 23.3188C19.2851 23.6939 19.4117 23.6939 20.9312 23.6939L22.9571 23.6314C24.7298 23.4438 26.2493 22.5061 27.199 21.0682C28.4019 19.1927 39.9878 0.500135 39.9878 0.375101C40.0511 0 39.9245 0 38.2151 0L36.2525 0.0625169H36.3158Z" fill="#FED138"/>
</svg>
