<svg width="1045" height="202" viewBox="0 0 1045 202" fill="none" xmlns="http://www.w3.org/2000/svg">
<path d="M949.898 42.691C920.235 36.9635 908.273 11.8439 906 0H1044.51C1045.37 29.7865 1046.56 87.9276 1044.51 82.2001C1042.47 76.4726 1035.71 69.2072 1032.58 66.2904C1019.62 52.9263 997.632 51.9717 990.387 50.6459L989.995 50.5741C982.244 49.156 956.879 44.5151 949.898 42.691Z" fill="#FBBDBD" fill-opacity="0.69"/>
<ellipse cx="1060.54" cy="104.094" rx="60.4554" ry="57.6881" fill="#6D7ED7" fill-opacity="0.46"/>
<ellipse cx="998.812" cy="114.391" rx="21.7129" ry="23.2825" fill="#FFD3D9" fill-opacity="0.53"/>
<path d="M664 201.274C664 169.09 627.959 143 583.5 143C539.041 143 503 169.09 503 201.274H664Z" fill="#E0D4E9"/>
<ellipse cx="128" cy="49.2254" rx="16.2254" ry="16" transform="rotate(-90 128 49.2254)" fill="#6D7ED7" fill-opacity="0.38"/>
<path d="M1.99991 1.49852e-05C-6.43365 24.9544 14.5738 46.981 36.0644 62.2126C55.6956 76.1264 80.5196 82.2575 100.945 69.5379C125.889 54.0045 147.481 27.8134 138 2.13962e-05L1.99991 1.49852e-05Z" fill="#FBBDBD" fill-opacity="0.49"/>
</svg>
