<svg width="1045" height="204" viewBox="0 0 1045 204" fill="none" xmlns="http://www.w3.org/2000/svg">
<path d="M949.898 44.691C920.235 38.9635 908.273 13.8439 906 2H1044.51C1045.37 31.7865 1046.56 89.9276 1044.51 84.2001C1042.47 78.4726 1035.71 71.2072 1032.58 68.2904C1019.62 54.9263 997.632 53.9717 990.387 52.6459L989.995 52.5741C982.244 51.156 956.879 46.5151 949.898 44.691Z" fill="#1B8EF3" fill-opacity="0.28"/>
<ellipse cx="1060.54" cy="106.094" rx="60.4554" ry="57.6881" fill="#6D7ED7" fill-opacity="0.46"/>
<ellipse cx="998.812" cy="116.391" rx="21.7129" ry="23.2825" fill="#1B8FF5" fill-opacity="0.12"/>
<path d="M664 203.274C664 171.09 627.959 145 583.5 145C539.041 145 503 171.09 503 203.274H664Z" fill="#6D7ED7" fill-opacity="0.19"/>
<ellipse cx="128" cy="51.2253" rx="16.2254" ry="16" transform="rotate(-90 128 51.2253)" fill="#6D7ED7" fill-opacity="0.44"/>
<path d="M1.9723 1.39015C-6.46125 26.3445 14.5741 48.981 36.0647 64.2126C55.6959 78.1263 80.5199 84.2574 100.945 71.5378C125.889 56.0044 147.306 28.6558 137.825 0.842405L1.9723 1.39015Z" fill="#1B8EF3" fill-opacity="0.13"/>
</svg>
