<svg width="17" height="17" viewBox="0 0 17 17" fill="none" xmlns="http://www.w3.org/2000/svg">
<path d="M4.18745 2.17501C3.6537 2.17501 3.14182 2.38704 2.7644 2.76446C2.38698 3.14188 2.17495 3.65376 2.17495 4.18751V12.8125C2.17495 13.9234 3.07655 14.825 4.18745 14.825H12.8125C13.3462 14.825 13.8581 14.613 14.2355 14.2356C14.6129 13.8581 14.825 13.3463 14.825 12.8125V10.5125C14.825 10.2838 14.9158 10.0644 15.0776 9.90263C15.2393 9.74088 15.4587 9.65001 15.6875 9.65001C15.9162 9.65001 16.1356 9.74088 16.2973 9.90263C16.4591 10.0644 16.55 10.2838 16.55 10.5125V12.8125C16.55 13.8038 16.1562 14.7544 15.4553 15.4553C14.7543 16.1562 13.8037 16.55 12.8125 16.55H4.18745C3.1962 16.55 2.24556 16.1562 1.54464 15.4553C0.843722 14.7544 0.449951 13.8038 0.449951 12.8125V4.18751C0.449951 3.19627 0.843722 2.24562 1.54464 1.5447C2.24556 0.843783 3.1962 0.450012 4.18745 0.450012H6.48745C6.7162 0.450012 6.93558 0.540882 7.09733 0.702632C7.25908 0.864383 7.34995 1.08376 7.34995 1.31251C7.34995 1.54126 7.25908 1.76064 7.09733 1.92239C6.93558 2.08414 6.7162 2.17501 6.48745 2.17501H4.18745ZM9.07495 1.31251C9.07495 1.08376 9.16582 0.864383 9.32757 0.702632C9.48932 0.540882 9.7087 0.450012 9.93745 0.450012H15.6875C15.9162 0.450012 16.1356 0.540882 16.2973 0.702632C16.4591 0.864383 16.55 1.08376 16.55 1.31251V7.06251C16.55 7.29126 16.4591 7.51064 16.2973 7.67239C16.1356 7.83414 15.9162 7.92501 15.6875 7.92501C15.4587 7.92501 15.2393 7.83414 15.0776 7.67239C14.9158 7.51064 14.825 7.29126 14.825 7.06251V3.39401L10.547 7.67201C10.468 7.75675 10.3728 7.82472 10.267 7.87186C10.1612 7.919 10.047 7.94435 9.93115 7.94639C9.81534 7.94844 9.70031 7.92713 9.59291 7.88375C9.48552 7.84037 9.38796 7.77581 9.30606 7.69391C9.22416 7.612 9.15959 7.51445 9.11621 7.40705C9.07283 7.29965 9.05153 7.18462 9.05357 7.06881C9.05561 6.953 9.08096 6.83879 9.1281 6.73299C9.17524 6.62719 9.24321 6.53197 9.32795 6.45301L13.606 2.17501H9.93745C9.7087 2.17501 9.48932 2.08414 9.32757 1.92239C9.16582 1.76064 9.07495 1.54126 9.07495 1.31251V1.31251Z" fill="#1B8EF3"/>
</svg>
