<svg width="685" height="900" viewBox="0 0 685 900" fill="none" xmlns="http://www.w3.org/2000/svg">
<g clip-path="url(#clip0_1530_882)">
<path d="M652.455 926.376C685.844 926.376 712.91 900.548 712.91 868.688C712.91 836.828 685.844 811 652.455 811C619.066 811 592 836.828 592 868.688C592 900.548 619.066 926.376 652.455 926.376Z" fill="#6D7ED7" fill-opacity="0.46"/>
<path d="M616.898 42.691C587.235 36.9635 575.273 11.8439 573 0H711.514C712.366 29.7865 713.56 87.9276 711.514 82.2001C709.468 76.4726 702.706 69.2072 699.58 66.2904C686.624 52.9263 664.632 51.9717 657.387 50.6459L656.995 50.5741C649.244 49.156 623.879 44.5151 616.898 42.691Z" fill="#FBBDBD" fill-opacity="0.69"/>
<path d="M4.86436 691C37.0434 690.427 65.3533 653.939 64.562 609.487C63.7707 565.035 37.043 529.464 4.86401 530.037L4.86436 691Z" fill="#E0D4E9"/>
<path d="M22.7842 -11.1085C14.3506 13.8459 35.358 35.8725 56.8486 51.1041C76.4798 65.0179 101.304 71.149 121.729 58.4294C146.673 42.896 168.265 16.7049 158.784 -11.1085L27.5924 -28.2163L22.7842 -11.1085Z" fill="#FBBDBD" fill-opacity="0.49"/>
<path d="M147 50.2253C147 41.2642 139.837 33.9999 131 33.9999C122.163 33.9999 115 41.2642 115 50.2253C115 59.1863 122.163 66.4507 131 66.4507C139.837 66.4507 147 59.1863 147 50.2253Z" fill="#6D7ED7" fill-opacity="0.38"/>
<path d="M389 567.5C389 544.028 369.972 525 346.5 525C323.028 525 304 544.028 304 567.5C304 590.972 323.028 610 346.5 610C369.972 610 389 590.972 389 567.5Z" fill="#94DED5" fill-opacity="0.38"/>
<path d="M395 594C395 585.163 387.837 578 379 578C370.163 578 363 585.163 363 594C363 602.837 370.163 610 379 610C387.837 610 395 602.837 395 594Z" fill="#79BCFA" fill-opacity="0.38"/>
<path d="M269 766C269 757.163 261.837 750 253 750C244.163 750 237 757.163 237 766C237 774.837 244.163 782 253 782C261.837 782 269 774.837 269 766Z" fill="#4C5BAB" fill-opacity="0.38"/>
<path d="M174 302C174 293.163 166.837 286 158 286C149.163 286 142 293.163 142 302C142 310.837 149.163 318 158 318C166.837 318 174 310.837 174 302Z" fill="#AB4C85" fill-opacity="0.38"/>
<path d="M605 479C605 470.163 597.837 463 589 463C580.163 463 573 470.163 573 479C573 487.837 580.163 495 589 495C597.837 495 605 487.837 605 479Z" fill="#A94CAB" fill-opacity="0.29"/>
<path d="M476 259.5C476 236.028 456.972 217 433.5 217C410.028 217 391 236.028 391 259.5C391 282.972 410.028 302 433.5 302C456.972 302 476 282.972 476 259.5Z" fill="#82B0FD" fill-opacity="0.52"/>
<path d="M418 296.5C418 289.044 411.956 283 404.5 283C397.044 283 391 289.044 391 296.5C391 303.956 397.044 310 404.5 310C411.956 310 418 303.956 418 296.5Z" fill="#E0A7EE" fill-opacity="0.38"/>
</g>
<defs>
<clipPath id="clip0_1530_882">
<rect width="685" height="900" fill="white"/>
</clipPath>
</defs>
</svg>
