<svg width="431" height="728" viewBox="0 0 431 728" fill="none" xmlns="http://www.w3.org/2000/svg">
<g clip-path="url(#clip0)">
<path d="M337.252 277.847H384.805L387.07 276.975H334.987L337.252 277.847Z" fill="#404040"/>
<path d="M382.541 245.918H368.652V235.624H372.426V226.9H368.652V140.359C371.068 140.359 373.03 138.44 373.03 135.997H349.178C349.178 138.44 351.141 140.359 353.556 140.359V226.9H349.782V235.624H353.556V245.918H339.667L339.818 255.34H382.541V245.918ZM356.122 289.537H350.084C350.084 611.798 334.686 728 334.686 728H356.122V289.537ZM365.935 662.222V728H387.372C387.372 728 371.973 611.798 371.973 289.537H365.935V662.222Z" fill="#A8A29C"/>
<path d="M332.119 272.613H389.938V274.358H332.119V272.613ZM332.119 268.6H389.938V269.996H332.119V268.6ZM332.119 261.621H389.938V263.366H332.119V261.621ZM356.122 662.222H365.935V728H356.122V662.222ZM356.122 289.537H365.935V662.222H356.122V289.537Z" fill="#AFC6D2"/>
<path opacity="0.5" d="M356.122 289.537V728H365.935V289.537H356.122Z" fill="#B5B6B6"/>
<path d="M332.119 270.17V272.613H389.938V269.996H332.119V270.17ZM332.119 265.459V268.6H389.938V263.191H332.119V265.459Z" fill="#646464"/>
<path d="M332.119 275.754L334.987 276.975H387.07L389.938 275.754V274.358H332.119V275.754Z" fill="black"/>
<path d="M382.39 255.34H339.667C337.101 260.574 332.119 261.621 332.119 261.621H389.938C389.938 261.621 385.107 260.4 382.39 255.34Z" fill="#84B6DB"/>
<path d="M368.652 131.635H367.444V77.0235H364.878V53.9924H363.67V35.1488H358.537V53.9924H357.33V77.0235H354.763V131.635H353.556C351.14 131.635 349.178 133.554 349.178 135.997H373.03C373.03 133.554 371.067 131.635 368.652 131.635Z" fill="white"/>
<path d="M339.667 253.421H382.541V255.165H339.667V253.421Z" fill="#D02027"/>
<path d="M354.764 77.0235H367.445V79.2917H354.764V77.0235ZM357.179 53.9924H364.878V56.2606H357.179V53.9924Z" fill="#C32327"/>
<path d="M357.55 51.7042H364.479V54.4759H357.55V51.7042Z" fill="#D02027"/>
<path d="M358.387 32.8806H363.519V35.1488H358.387V32.8806Z" fill="#C32327"/>
<path d="M359.443 30.6124H362.614V32.8806H359.443V30.6124Z" fill="#C32327"/>
<path d="M358.936 10.1287H363.093V30.9164H358.936V10.1287Z" fill="#D02027"/>
<path d="M356.164 74.3925H365.865V76.6496H356.164V74.3925ZM360.159 0.427734H361.871V10.6717H360.159V0.427734Z" fill="#D02027"/>
<path d="M332.119 283.78C332.119 287.095 334.535 289.712 337.252 289.712H384.503C387.372 289.712 389.636 287.095 389.636 283.78C389.636 280.465 387.372 277.847 384.503 277.847H336.799C334.384 277.847 332.119 280.465 332.119 283.78Z" fill="white"/>
<path d="M104.316 693.104V461.398H99.334V380.964H91.0311V371.367H82.2752V350.43H75.6328V325.829H70.651V313.441H56.3095V264.238H52.9883V313.441H38.6468V325.829H33.665V350.43H27.0226V371.367H18.1158V380.964H9.81285V461.398H4.83105V693.104H104.316Z" fill="#68BDC6"/>
<path d="M21.8896 371.367H25.2108V693.104H21.8896V371.367ZM46.7986 313.441H50.1198V693.104H46.7986V313.441ZM59.1776 313.441H62.4987V693.104H59.1776V313.441ZM84.0865 371.367H87.4077V693.104H84.0865V371.367Z" fill="#838383"/>
<path d="M74.8777 693.104H71.5565V329.667H37.5897V693.104H34.2686V325.305H74.8777V693.104Z" fill="#838383"/>
<path d="M35.9289 338.566H73.2168V342.753H35.9289V338.566ZM27.0221 365.61H82.2746V369.797H27.0221V365.61ZM27.0221 352.349H82.2746V356.537H27.0221V352.349ZM99.7864 693.104H96.4651V383.406H12.6806V693.104H9.35938V379.219H99.7864V693.104Z" fill="#838383"/>
<path d="M11.02 392.654H98.1258V396.841H11.02V392.654ZM11.02 406.263H98.1258V410.45H11.02V406.263ZM11.02 419.872H98.1258V424.06H11.02V419.872ZM11.02 433.307H98.1258V437.494H11.02V433.307ZM11.02 446.916H98.1258V451.104H11.02V446.916ZM105.976 693.104H102.655V464.713H6.49111V693.104H3.16992V460.526H105.976V693.104Z" fill="#838383"/>
<path d="M4.83105 474.135H104.316V478.322H4.83105V474.135ZM4.83105 487.57H104.316V491.757H4.83105V487.57ZM4.83105 501.179H104.316V505.366H4.83105V501.179ZM4.83105 514.788H104.316V518.976H4.83105V514.788ZM4.83105 528.223H104.316V532.41H4.83105V528.223ZM4.83105 541.832H104.316V546.02H4.83105V541.832ZM4.83105 555.442H104.316V559.629H4.83105V555.442ZM4.83105 568.876H104.316V573.064H4.83105V568.876ZM4.83105 582.486H104.316V586.673H4.83105V582.486ZM4.83105 596.095H104.316V600.282H4.83105V596.095ZM4.83105 609.704H104.316V613.892H4.83105V609.704ZM4.83105 623.139H104.316V627.326H4.83105V623.139ZM4.83105 636.748H104.316V640.936H4.83105V636.748ZM4.83105 650.357H104.316V654.545H4.83105V650.357ZM4.83105 663.792H104.316V667.98H4.83105V663.792ZM4.83105 677.401H104.316V681.589H4.83105V677.401ZM4.83105 691.011H104.316V695.198H4.83105V691.011ZM104.316 704.445V708.807V704.445ZM4.83105 708.807V704.445V708.807ZM104.316 718.055V722.242V718.055ZM4.83105 722.242V718.055V722.242ZM4.83105 668.154H104.316V672.342H4.83105V668.154Z" fill="#838383"/>
<path d="M4.83105 640.936H104.316V681.589H4.83105V640.936Z" fill="black"/>
<path d="M4.83105 650.357H104.316V654.545H4.83105V650.357ZM4.83105 663.792H104.316V667.98H4.83105V663.792ZM4.83105 677.401H104.316V681.589H4.83105V677.401ZM4.83105 691.011H104.316V695.198H4.83105V691.011Z" fill="black"/>
<path d="M52.9883 211.72H56.3095V287.444H52.9883V211.72Z" fill="black"/>
<path d="M37.7405 313.441H70.6504V326.876H37.7405V313.441ZM87.4073 371.367H91.1814V379.219H87.4073V371.367ZM18.1152 371.367H21.8893V379.219H18.1152V371.367Z" fill="#838383"/>
<path d="M105.976 695.198H3.16992V459.13H8.15169V378.695H16.4547V369.274H25.3615V348.336H32.0039V323.735H36.9857V311.347H51.3272V244.522H57.9696V311.347H72.3111V323.735H77.2929V348.336H83.9352V369.274H92.8421V378.87H101.145V459.304H106.127V695.198H105.976ZM6.49111 691.011H102.655V463.492H97.6729V383.057H89.3699V373.461H80.4631V352.524H73.9717V327.922H68.9899V315.535H40.3069V327.922H35.3251V352.524H28.6827V373.461H19.7759V383.057H11.4729V463.492H6.49111V691.011Z" fill="#838383"/>
<path d="M43.6279 264.238H65.5176V289.537H43.6279V264.238Z" fill="#3B9F47"/>
<path d="M298.002 319.897H293.624V333.506H289.095V347.29H285.924V361.771H281.848V375.38H278.376V385.849H264.337V375.38H260.714V361.771H256.638V347.29H253.467V333.506H248.938V319.897H244.561V639.714H298.002V319.897Z" fill="black"/>
<path d="M290.453 331.936H298.153V340.659H290.453V331.936ZM244.561 331.936H253.467V340.659H244.561V331.936ZM285.924 348.511H298.002V357.235H285.924V348.511ZM281.848 364.912H298.002V373.636H281.848V364.912ZM267.507 381.313H298.002V390.037H267.507V381.313ZM244.561 397.888H298.002V406.612H244.561V397.888ZM244.561 414.289H298.002V423.013H244.561V414.289ZM244.561 430.864H298.002V439.588H244.561V430.864ZM244.561 447.265H298.002V455.989H244.561V447.265ZM244.561 463.666H298.002V472.39H244.561V463.666ZM244.561 480.242H298.002V488.966H244.561V480.242ZM244.561 496.643H298.002V505.366H244.561V496.643ZM244.561 513.218H298.002V521.942H244.561V513.218ZM244.561 529.619H298.002V538.343H244.561V529.619ZM244.561 546.02H298.002V554.744H244.561V546.02ZM244.561 562.595H298.002V571.319H244.561V562.595ZM244.561 578.996H298.002V587.72H244.561V578.996ZM244.561 595.571H298.002V604.295H244.561V595.571ZM244.561 611.972H298.002V620.696H244.561V611.972ZM244.561 628.373H298.002V637.097H244.561V628.373ZM244.561 644.949H298.002V653.673H244.561V644.949Z" fill="#9B6355"/>
<path d="M244.561 611.1H298.002V647.217H244.561V611.1Z" fill="black"/>
<path d="M244.561 618.777H298.002V627.501H244.561V618.777ZM244.561 632.561H298.002V641.285H244.561V632.561ZM244.561 364.912H260.714V373.636H244.561V364.912ZM244.561 381.313H267.507V390.037H244.561V381.313ZM244.561 348.511H256.638V357.235H244.561V348.511Z" fill="#9B6355"/>
<path d="M243.202 319.897H246.976V639.714H243.202V319.897ZM250.297 333.506H254.071V639.54H250.297V333.506ZM257.997 361.771H261.771V639.714H257.997V361.771ZM265.545 387.943H269.319V639.714H265.545V387.943ZM273.244 387.943H277.018V639.714H273.244V387.943ZM280.792 361.771H284.566V639.714H280.792V361.771ZM288.491 333.506H292.265V639.54H288.491V333.506ZM295.737 319.897H299.511V639.714H295.737V319.897Z" fill="#9B6355"/>
<path d="M283.66 361.771H289.547V364.912H283.66V361.771ZM245.617 319.897H248.938V333.506H245.617V319.897ZM253.014 354.967H257.09V368.576H253.014V354.967Z" fill="#9B6355"/>
<path d="M256.638 361.771H258.902V367.529H256.638V361.771ZM260.714 375.38H264.186V383.93H260.714V375.38ZM278.376 375.38H282.754V382.709H278.376V375.38ZM285.925 356.362H288.944V364.039H285.925V356.362ZM293.775 319.897H297.549V334.902H293.775V319.897Z" fill="#9B6355"/>
<path d="M244.561 314.488V319.896H248.938V333.506H253.467V348.511H256.638V361.771H260.714V375.38H264.337V385.849H278.376V375.38H281.848V361.771H285.924V348.162H289.095V333.506H293.624V319.896H298.002V314.488H244.561Z" fill="#7A4A3D"/>
<path d="M255.581 323.037H286.981V327.399H255.581V323.037ZM259.506 336.821H283.056V341.183H259.506V336.821ZM263.431 350.605H279.131V354.967H263.431V350.605ZM267.356 364.388H275.206V368.75H267.356V364.388Z" fill="black"/>
<path opacity="0.1" d="M310.531 393.352L298.001 378.347V639.714H310.531V393.352Z" fill="#010101"/>
<path d="M200.63 314.488H211.65V639.54H200.63V314.488ZM222.52 314.488H233.54V639.54H222.52V314.488ZM233.54 314.488H244.56V639.54H233.54V314.488Z" fill="#9B6355"/>
<path d="M211.65 314.488H222.671V639.54H211.65V314.488Z" fill="#9B6355"/>
<path opacity="0.4" d="M200.63 314.488H211.65V639.54H200.63V314.488Z" fill="white"/>
<path opacity="0.3" d="M210.649 315.016H221.67V640.068H210.649V315.016Z" fill="black"/>
<path opacity="0.2" d="M221.736 315.016H232.757V640.068H221.736V315.016Z" fill="black"/>
<path opacity="0.1" d="M232.823 315.016H243.844V640.068H232.823V315.016Z" fill="black"/>
<path d="M233.54 337.519H238.975V345.196H233.54V337.519ZM233.54 356.188H238.975V363.865H233.54V356.188ZM233.54 374.683H238.975V382.36H233.54V374.683ZM233.54 393.352H238.975V401.029H233.54V393.352ZM233.54 411.846H238.975V419.523H233.54V411.846ZM233.54 430.515H238.975V438.192H233.54V430.515ZM233.54 449.01H238.975V456.687H233.54V449.01ZM233.54 467.679H238.975V475.356H233.54V467.679ZM233.54 486.174H238.975V493.851H233.54V486.174ZM233.54 504.843H238.975V512.52H233.54V504.843ZM233.54 523.338H238.975V531.015H233.54V523.338ZM233.54 542.007H238.975V549.684H233.54V542.007ZM233.54 560.501H238.975V568.178H233.54V560.501ZM233.54 579.171H238.975V586.848H233.54V579.171ZM233.54 597.665H238.975V605.342H233.54V597.665ZM233.54 616.334H238.975V624.011H233.54V616.334ZM233.54 634.829H238.975V642.506H233.54V634.829ZM233.54 653.498H238.975V661.175H233.54V653.498Z" fill="black"/>
<path d="M233.54 608.483H238.975V645.647H233.54V608.483Z" fill="black"/>
<path d="M233.54 619.3H238.974V626.977H233.54V619.3ZM222.52 337.519H227.954V345.196H222.52V337.519ZM222.52 356.188H227.954V363.865H222.52V356.188ZM222.52 374.683H227.954V382.36H222.52V374.683ZM222.52 393.352H227.954V401.029H222.52V393.352ZM222.52 411.846H227.954V419.523H222.52V411.846ZM222.52 430.515H227.954V438.192H222.52V430.515ZM222.52 449.01H227.954V456.687H222.52V449.01ZM222.52 467.679H227.954V475.356H222.52V467.679ZM222.52 486.174H227.954V493.851H222.52V486.174ZM222.52 504.843H227.954V512.52H222.52V504.843ZM222.52 523.338H227.954V531.015H222.52V523.338ZM222.52 542.007H227.954V549.684H222.52V542.007ZM222.52 560.501H227.954V568.178H222.52V560.501ZM222.52 579.171H227.954V586.848H222.52V579.171ZM222.52 597.665H227.954V605.342H222.52V597.665ZM222.52 616.334H227.954V624.011H222.52V616.334ZM222.52 634.829H227.954V642.506H222.52V634.829ZM222.52 653.498H227.954V661.175H222.52V653.498Z" fill="black"/>
<path d="M222.52 608.483H227.954V645.647H222.52V608.483Z" fill="black"/>
<path d="M222.52 619.3H227.954V626.977H222.52V619.3ZM211.65 337.519H217.085V345.196H211.65V337.519ZM211.65 356.188H217.085V363.865H211.65V356.188ZM211.65 374.683H217.085V382.36H211.65V374.683ZM211.65 393.352H217.085V401.029H211.65V393.352ZM211.65 411.846H217.085V419.523H211.65V411.846ZM211.65 430.515H217.085V438.192H211.65V430.515ZM211.65 449.01H217.085V456.687H211.65V449.01ZM211.65 467.679H217.085V475.356H211.65V467.679ZM211.65 486.174H217.085V493.851H211.65V486.174ZM211.65 504.843H217.085V512.52H211.65V504.843ZM211.65 523.338H217.085V531.015H211.65V523.338ZM211.65 542.007H217.085V549.684H211.65V542.007ZM211.65 560.501H217.085V568.178H211.65V560.501ZM211.65 579.171H217.085V586.848H211.65V579.171ZM211.65 597.665H217.085V605.342H211.65V597.665ZM211.65 616.334H217.085V624.011H211.65V616.334ZM211.65 634.829H217.085V642.506H211.65V634.829ZM211.65 653.498H217.085V661.175H211.65V653.498Z" fill="black"/>
<path d="M211.65 608.483H217.085V645.647H211.65V608.483Z" fill="black"/>
<path d="M211.65 619.3H217.085V626.977H211.65V619.3ZM200.63 337.519H206.065V345.196H200.63V337.519ZM200.63 356.188H206.065V363.865H200.63V356.188ZM200.63 374.683H206.065V382.36H200.63V374.683ZM200.63 393.352H206.065V401.029H200.63V393.352ZM200.63 411.846H206.065V419.523H200.63V411.846ZM200.63 430.515H206.065V438.192H200.63V430.515ZM200.63 449.01H206.065V456.687H200.63V449.01ZM200.63 467.679H206.065V475.356H200.63V467.679ZM200.63 486.174H206.065V493.851H200.63V486.174ZM200.63 504.843H206.065V512.52H200.63V504.843ZM200.63 523.338H206.065V531.015H200.63V523.338ZM200.63 542.007H206.065V549.684H200.63V542.007ZM200.63 560.501H206.065V568.178H200.63V560.501ZM200.63 579.171H206.065V586.848H200.63V579.171ZM200.63 597.665H206.065V605.342H200.63V597.665ZM200.63 616.334H206.065V624.011H200.63V616.334ZM200.63 634.829H206.065V642.506H200.63V634.829ZM200.63 653.498H206.065V661.175H200.63V653.498Z" fill="black"/>
<path d="M200.63 608.483H206.065V645.647H200.63V608.483Z" fill="black"/>
<path d="M200.63 619.3H206.065V626.977H200.63V619.3Z" fill="black"/>
<path d="M297.958 315.016H310.488V640.068H297.958V315.016Z" fill="#9B6355"/>
<path d="M305.097 337.519H310.531V345.196H305.097V337.519ZM305.097 356.188H310.531V363.865H305.097V356.188ZM305.097 374.683H310.531V382.36H305.097V374.683ZM305.097 393.352H310.531V401.029H305.097V393.352ZM305.097 411.846H310.531V419.523H305.097V411.846ZM305.097 430.515H310.531V438.192H305.097V430.515ZM305.097 449.01H310.531V456.687H305.097V449.01ZM305.097 467.679H310.531V475.356H305.097V467.679ZM305.097 486.174H310.531V493.851H305.097V486.174ZM305.097 504.843H310.531V512.52H305.097V504.843ZM305.097 523.338H310.531V531.015H305.097V523.338ZM305.097 542.007H310.531V549.684H305.097V542.007ZM305.097 560.501H310.531V568.178H305.097V560.501ZM305.097 579.171H310.531V586.848H305.097V579.171ZM305.097 597.665H310.531V605.342H305.097V597.665ZM305.097 616.334H310.531V624.011H305.097V616.334ZM305.097 634.829H310.531V642.506H305.097V634.829ZM305.097 653.498H310.531V661.175H305.097V653.498Z" fill="black"/>
<path d="M305.097 608.483H310.531V645.647H305.097V608.483Z" fill="black"/>
<path d="M305.097 619.3H310.531V626.977H305.097V619.3Z" fill="black"/>
<path opacity="0.1" d="M244.561 314.488L285.924 361.771H281.849V375.38H278.376V385.849H264.337V375.38H260.714V361.771H256.638V348.511H253.467V333.506H248.938V319.896H244.561V314.488Z" fill="#010101"/>
<path d="M99.7871 234.751H210.292V700.607H99.7871V234.751Z" fill="#FDFDFE"/>
<path d="M210.443 234.751V700.607M99.7871 234.751V700.607V234.751ZM106.731 234.751V700.607V234.751ZM113.676 234.751V700.607V234.751ZM120.469 234.751V700.607V234.751ZM127.413 234.751V700.607V234.751ZM134.358 234.751V700.607V234.751ZM141.302 234.751V700.607V234.751ZM148.246 234.751V700.607V234.751ZM155.04 234.751V700.607V234.751ZM161.984 234.751V700.607V234.751ZM168.928 234.751V700.607V234.751ZM175.873 234.751V700.607V234.751ZM182.666 234.751V700.607V234.751ZM189.61 234.751V700.607V234.751ZM196.555 234.751V700.607V234.751ZM203.499 234.751V700.607V234.751Z" stroke="#EDEDEE" stroke-miterlimit="10"/>
<path d="M104.315 251.152H205.763V257.957H104.315V251.152ZM104.315 265.459H205.763V272.264H104.315V265.459ZM104.315 279.767H205.763V286.571H104.315V279.767ZM104.315 294.074H205.763V300.878H104.315V294.074ZM104.315 308.381H205.763V315.186H104.315V308.381ZM104.315 322.863H205.763V329.667H104.315V322.863ZM104.315 337.17H205.763V343.974H104.315V337.17ZM104.315 351.477H205.763V358.282H104.315V351.477ZM104.315 365.784H205.763V372.589H104.315V365.784ZM104.315 380.091H205.763V386.896H104.315V380.091ZM104.315 394.398H205.763V401.203H104.315V394.398ZM104.315 408.706H205.763V415.51H104.315V408.706ZM104.315 423.187H205.763V429.992H104.315V423.187ZM104.315 437.495H205.763V444.299H104.315V437.495ZM104.315 451.802H205.763V458.606H104.315V451.802ZM104.315 466.109H205.763V472.913H104.315V466.109ZM104.315 480.416H205.763V487.221H104.315V480.416ZM104.315 494.723H205.763V501.528H104.315V494.723ZM104.315 509.03H205.763V515.835H104.315V509.03ZM104.315 523.512H205.763V530.317H104.315V523.512ZM104.315 537.819H205.763V544.624H104.315V537.819ZM104.315 552.126H205.763V558.931H104.315V552.126ZM104.315 566.434H205.763V573.238H104.315V566.434ZM104.315 580.741H205.763V587.545H104.315V580.741ZM104.315 595.048H205.763V601.853H104.315V595.048ZM104.315 609.355H205.763V616.16H104.315V609.355ZM104.315 623.837H205.763V630.641H104.315V623.837ZM104.315 638.144H205.763V644.949H104.315V638.144ZM104.315 652.451H205.763V659.256H104.315V652.451ZM104.315 666.758H205.763V673.563H104.315V666.758ZM104.315 681.065H205.763V687.87H104.315V681.065ZM104.315 695.373H205.763V702.177H104.315V695.373ZM104.315 709.68H205.763V716.484H104.315V709.68Z" fill="black"/>
<path d="M104.315 703.573H205.763V710.378H104.315V703.573ZM104.315 673.04H205.763V679.844H104.315V673.04ZM104.315 687.347H205.763V694.151H104.315V687.347Z" fill="black"/>
<path d="M104.315 701.654H205.763V708.459H104.315V701.654Z" fill="black"/>
<path d="M104.315 703.748H205.763V710.552H104.315V703.748ZM104.315 673.214H205.763V680.019H104.315V673.214ZM104.315 687.521H205.763V694.326H104.315V687.521Z" fill="black"/>
<path d="M104.315 677.401H205.763V684.206H104.315V677.401Z" fill="black"/>
<path d="M112.166 227.074H121.224V234.751H112.166V227.074ZM124.243 227.074H133.301V234.751H124.243V227.074Z" fill="black"/>
<path d="M114.279 223.585H119.261V227.074H114.279V223.585ZM126.356 223.585H131.338V227.074H126.356V223.585Z" fill="#FEF8FB"/>
<path d="M159.417 153.096H164.701V234.577H159.417V153.096ZM181.307 173.51H185.383V234.751H181.307V173.51Z" fill="#7D7D7D"/>
<path d="M181.307 162.518H185.383V173.335H181.307V162.518Z" fill="black"/>
<path d="M160.775 124.83H163.191V153.096H160.775V124.83Z" fill="#BBBBBB"/>
<path d="M425.415 710.029V709.68H409.262V546.194H397.788V561.025C397.788 561.025 384.655 565.91 371.521 566.957V693.453L364.275 692.407V692.581C364.275 692.581 354.311 693.104 348.725 693.977V693.628C343.895 694.326 341.932 694.326 341.932 694.326V599.759C333.931 599.061 321.552 597.142 318.835 593.478V583.183H310.23V709.505H296.492V709.854H291.359V727.826H431V709.854H425.415V710.029Z" fill="#787878"/>
<path d="M425.414 710.029V558.408C425.414 558.408 419.225 547.416 409.261 546.02V709.854H425.414V710.029ZM310.078 583.358C310.078 583.358 302.53 584.405 296.341 592.082V710.029H310.078V583.358ZM348.574 693.628V600.457C348.574 600.457 345.706 600.282 341.781 599.933V694.5C341.781 694.326 343.743 694.151 348.574 693.628ZM371.37 567.132C368.954 567.306 366.388 567.48 364.123 567.306V692.581L371.37 693.628V567.132Z" fill="#C9C9C9"/>
<path d="M291.208 710.029H430.849V716.659H291.208V710.029Z" fill="#AFC6D1"/>
<path d="M341.781 599.759L341.63 709.68M371.37 567.132V710.029V567.132ZM373.181 566.957V710.029V566.957ZM374.993 566.783V710.029V566.783ZM376.804 566.434V710.029V566.434ZM378.616 566.085V710.029V566.085ZM380.427 565.91V710.029V565.91ZM382.239 565.561V710.029V565.561ZM384.05 565.038V710.029V565.038ZM385.862 564.689V710.029V564.689ZM387.674 564.165V710.029V564.165ZM389.485 563.816V710.029V563.816ZM391.297 563.293V710.029V563.293ZM393.108 562.77V710.029V562.77ZM394.769 562.072V710.029V562.072ZM396.58 561.548V710.029V561.548ZM398.392 546.194V710.029V546.194ZM400.204 546.194V710.029V546.194ZM402.015 546.194V710.029V546.194ZM403.827 546.194V710.029V546.194ZM405.638 546.194V710.029V546.194ZM407.45 546.194V710.029V546.194ZM312.041 583.358V709.68V583.358ZM314.004 583.358V709.68V583.358ZM315.966 583.358V709.68V583.358ZM317.929 583.358V709.68V583.358ZM320.042 594.873L319.891 709.68L320.042 594.873ZM322.005 595.92L321.854 709.68L322.005 595.92ZM323.967 596.618L323.816 709.68L323.967 596.618ZM325.93 597.142L325.779 709.68L325.93 597.142ZM327.892 597.665L327.741 709.68L327.892 597.665ZM329.855 598.189L329.704 709.68L329.855 598.189ZM331.817 598.538V709.68V598.538ZM333.78 598.886V709.68V598.886ZM335.742 599.061V709.68V599.061ZM337.856 599.41L337.705 709.68L337.856 599.41ZM339.818 599.584L339.667 709.68L339.818 599.584Z" stroke="#6E8FA9" stroke-width="0.5" stroke-miterlimit="10"/>
<path d="M395.524 701.13C384.353 692.756 361.104 692.756 361.104 692.756C333.629 693.628 327.138 701.13 327.138 701.13H395.524Z" fill="#FFFBFD"/>
<path d="M367.747 709.68C383.296 708.633 394.618 701.654 395.524 701.13H327.138C336.045 707.412 354.915 709.68 354.915 709.68H367.747Z" fill="#536B75"/>
<path opacity="0.59" d="M397.788 546.194H409.261V710.029H397.788V546.194Z" fill="#C9C9C9"/>
<path opacity="0.5" d="M310.078 583.358H318.683V710.203H310.078V583.358Z" fill="#C9C9C9"/>
<path d="M430.849 716.659V728M291.208 716.659V728V716.659ZM299.964 716.659V728V716.659ZM308.569 716.659V728V716.659ZM317.325 716.659V728V716.659ZM326.081 716.659V728V716.659ZM334.836 716.659V728V716.659ZM343.592 716.659V728V716.659ZM352.348 716.659V728V716.659ZM360.953 716.659V728V716.659ZM369.709 716.659V728V716.659ZM378.465 716.659V728V716.659ZM387.221 716.659V728V716.659ZM395.976 716.659V728V716.659ZM404.732 716.659V728V716.659ZM413.337 716.659V728V716.659ZM422.093 716.659V728V716.659Z" stroke="#6E8FA9" stroke-width="0.5" stroke-miterlimit="10"/>
<path d="M319.74 654.545C319.74 654.545 286.226 572.191 166.512 572.191C49.9686 572.191 15.2471 654.545 15.2471 654.545H319.74Z" fill="white"/>
<path d="M324.42 644.076L316.268 654.545H17.3608L9.20877 644.076H0V728H333.629V644.076H324.42Z" fill="#ADA198"/>
<path d="M4.07617 676.704H9.66181V680.193H4.07617V676.704ZM4.07617 689.092H9.66181V692.581H4.07617V689.092Z" fill="black"/>
<path d="M29.8906 681.589H49.3649V728H29.8906V681.589ZM52.6861 681.589H74.8777V728H52.6861V681.589ZM78.0479 681.589H97.5222V728H78.0479V681.589ZM134.055 681.589H153.53V728H134.055V681.589ZM156.851 681.589H179.042V728H156.851V681.589ZM182.213 681.589H201.687V728H182.213V681.589ZM236.106 681.589H255.581V728H236.106V681.589ZM258.902 681.589H281.093V728H258.902V681.589ZM284.415 681.589H303.889V728H284.415V681.589Z" fill="black"/>
<path d="M302.983 654.545C302.983 654.545 267.355 591.384 168.022 591.384C68.6879 591.384 33.0605 654.545 33.0605 654.545H302.983Z" fill="#F4F4F4"/>
<path d="M101.146 694.151H117.6V696.594H101.146V694.151ZM101.146 703.573H117.6V706.016H101.146V703.573ZM101.146 712.821H117.6V715.263H101.146V712.821ZM215.727 694.151H232.182V696.594H215.727V694.151ZM215.727 703.573H232.182V706.016H215.727V703.573ZM215.727 712.821H232.182V715.263H215.727V712.821Z" fill="#1B3947" stroke="#C4C4C4" stroke-width="0.15" stroke-miterlimit="10"/>
<path d="M134.055 667.805H153.53V673.388H134.055V667.805ZM182.213 667.805H201.687V673.388H182.213V667.805ZM156.851 667.805H179.042V673.388H156.851V667.805ZM236.106 667.805H255.581V673.388H236.106V667.805ZM284.415 667.805H303.889V673.388H284.415V667.805ZM258.902 667.805H281.094V673.388H258.902V667.805ZM205.008 667.805H232.936V673.388H205.008V667.805ZM101.9 667.805H129.828V673.388H101.9V667.805ZM29.8907 667.805H49.365V673.388H29.8907V667.805ZM78.048 667.805H97.5222V673.388H78.048V667.805ZM52.6861 667.805H74.8778V673.388H52.6861V667.805ZM0 654.545H333.629V663.967H0V654.545Z" fill="#A09790"/>
<path d="M156.851 681.589H179.042V684.555H156.851V681.589Z" fill="#465064" stroke="#C4C4C4" stroke-miterlimit="10"/>
<path d="M156.851 684.555H179.042V687.521H156.851V684.555Z" fill="black"/>
<path d="M156.851 687.521H179.042V690.487H156.851V687.521Z" fill="#465064" stroke="#C4C4C4" stroke-miterlimit="10"/>
<path d="M156.851 690.662H179.042V693.628H156.851V690.662Z" fill="black"/>
<path d="M156.851 693.628H179.042V696.594H156.851V693.628Z" fill="#465064" stroke="#C4C4C4" stroke-miterlimit="10"/>
<path d="M156.851 696.594H179.042V699.56H156.851V696.594Z" fill="black"/>
<path d="M156.851 699.56H179.042V702.526H156.851V699.56Z" fill="#465064" stroke="#C4C4C4" stroke-miterlimit="10"/>
<path d="M156.851 702.701H179.042V705.667H156.851V702.701Z" fill="black"/>
<path d="M156.851 705.667H179.042V708.633H156.851V705.667Z" fill="#465064" stroke="#C4C4C4" stroke-miterlimit="10"/>
<path d="M156.851 708.633H179.042V711.599H156.851V708.633Z" fill="black"/>
<path d="M156.851 711.773H179.042V714.74H156.851V711.773Z" fill="#465064" stroke="#C4C4C4" stroke-miterlimit="10"/>
<path d="M156.851 714.74H179.042V717.706H156.851V714.74Z" fill="black"/>
<path d="M156.851 717.706H179.042V720.672H156.851V717.706Z" fill="#465064" stroke="#C4C4C4" stroke-miterlimit="10"/>
<path d="M156.851 720.672H179.042V723.638H156.851V720.672Z" fill="black"/>
<path d="M182.213 681.589H201.687V684.555H182.213V681.589Z" fill="#465064" stroke="#C4C4C4" stroke-miterlimit="10"/>
<path d="M182.213 684.555H201.687V687.521H182.213V684.555Z" fill="black"/>
<path d="M182.213 687.521H201.687V690.487H182.213V687.521Z" fill="#465064" stroke="#C4C4C4" stroke-miterlimit="10"/>
<path d="M182.213 690.662H201.687V693.628H182.213V690.662Z" fill="black"/>
<path d="M182.213 693.628H201.687V696.594H182.213V693.628Z" fill="#465064" stroke="#C4C4C4" stroke-miterlimit="10"/>
<path d="M182.213 696.594H201.687V699.56H182.213V696.594Z" fill="black"/>
<path d="M182.213 699.56H201.687V702.526H182.213V699.56Z" fill="#465064" stroke="#C4C4C4" stroke-miterlimit="10"/>
<path d="M182.213 702.701H201.687V705.667H182.213V702.701Z" fill="black"/>
<path d="M182.213 705.667H201.687V708.633H182.213V705.667Z" fill="#465064" stroke="#C4C4C4" stroke-miterlimit="10"/>
<path d="M182.213 708.633H201.687V711.599H182.213V708.633Z" fill="black"/>
<path d="M182.213 711.773H201.687V714.74H182.213V711.773Z" fill="#465064" stroke="#C4C4C4" stroke-miterlimit="10"/>
<path d="M182.213 714.74H201.687V717.706H182.213V714.74Z" fill="black"/>
<path d="M182.213 717.706H201.687V720.672H182.213V717.706Z" fill="#465064" stroke="#C4C4C4" stroke-miterlimit="10"/>
<path d="M182.213 720.672H201.687V723.638H182.213V720.672Z" fill="black"/>
<path d="M134.056 681.589H153.53V684.555H134.056V681.589Z" fill="#465064" stroke="#C4C4C4" stroke-miterlimit="10"/>
<path d="M134.056 684.555H153.53V687.521H134.056V684.555Z" fill="black"/>
<path d="M134.056 687.521H153.53V690.487H134.056V687.521Z" fill="#465064" stroke="#C4C4C4" stroke-miterlimit="10"/>
<path d="M134.056 690.662H153.53V693.628H134.056V690.662Z" fill="black"/>
<path d="M134.056 693.628H153.53V696.594H134.056V693.628Z" fill="#465064" stroke="#C4C4C4" stroke-miterlimit="10"/>
<path d="M134.056 696.594H153.53V699.56H134.056V696.594Z" fill="black"/>
<path d="M134.056 699.56H153.53V702.526H134.056V699.56Z" fill="#465064" stroke="#C4C4C4" stroke-miterlimit="10"/>
<path d="M134.056 702.701H153.53V705.667H134.056V702.701Z" fill="black"/>
<path d="M134.056 705.667H153.53V708.633H134.056V705.667Z" fill="#465064" stroke="#C4C4C4" stroke-miterlimit="10"/>
<path d="M134.056 708.633H153.53V711.599H134.056V708.633Z" fill="black"/>
<path d="M134.056 711.773H153.53V714.74H134.056V711.773Z" fill="#465064" stroke="#C4C4C4" stroke-miterlimit="10"/>
<path d="M134.056 714.74H153.53V717.706H134.056V714.74Z" fill="black"/>
<path d="M134.056 717.706H153.53V720.672H134.056V717.706Z" fill="#465064" stroke="#C4C4C4" stroke-miterlimit="10"/>
<path d="M134.056 720.672H153.53V723.638H134.056V720.672Z" fill="black"/>
<path d="M134.056 681.589V723.813V681.589ZM137.377 681.589V723.813V681.589ZM140.547 681.589V723.813V681.589ZM143.868 681.589V723.813V681.589ZM147.038 681.589V723.813V681.589ZM150.36 681.589V723.813V681.589ZM153.681 681.589V723.813V681.589ZM182.213 681.589V723.813V681.589ZM185.534 681.589V723.813V681.589ZM188.704 681.589V723.813V681.589ZM192.026 681.589V723.813V681.589ZM195.347 681.589V723.813V681.589ZM198.517 681.589V723.813V681.589ZM201.838 681.589V723.813V681.589ZM156.851 681.589V723.813V681.589ZM160.021 681.589V723.813V681.589ZM163.192 681.589V723.813V681.589ZM166.362 681.589V723.813V681.589ZM169.532 681.589V723.813V681.589ZM172.551 681.589V723.813V681.589ZM175.721 681.589V723.813V681.589ZM178.892 681.589V723.813V681.589Z" fill="black"/>
<path d="M178.892 681.589V723.813M134.056 681.589V723.813V681.589ZM137.377 681.589V723.813V681.589ZM140.547 681.589V723.813V681.589ZM143.868 681.589V723.813V681.589ZM147.038 681.589V723.813V681.589ZM150.36 681.589V723.813V681.589ZM153.681 681.589V723.813V681.589ZM182.213 681.589V723.813V681.589ZM185.534 681.589V723.813V681.589ZM188.704 681.589V723.813V681.589ZM192.026 681.589V723.813V681.589ZM195.347 681.589V723.813V681.589ZM198.517 681.589V723.813V681.589ZM201.838 681.589V723.813V681.589ZM156.851 681.589V723.813V681.589ZM160.021 681.589V723.813V681.589ZM163.192 681.589V723.813V681.589ZM166.362 681.589V723.813V681.589ZM169.532 681.589V723.813V681.589ZM172.551 681.589V723.813V681.589ZM175.721 681.589V723.813V681.589Z" stroke="#C4C4C4" stroke-width="0.05" stroke-miterlimit="10"/>
<path d="M29.8906 681.589H49.3649V728H29.8906V681.589ZM52.6861 681.589H74.8777V728H52.6861V681.589ZM78.0479 681.589H97.5222V728H78.0479V681.589Z" fill="black"/>
<path d="M52.6865 681.589H74.8781V684.555H52.6865V681.589Z" fill="#465064" stroke="#C4C4C4" stroke-miterlimit="10"/>
<path d="M52.6865 684.555H74.8781V687.521H52.6865V684.555Z" fill="black"/>
<path d="M52.6865 687.521H74.8781V690.487H52.6865V687.521Z" fill="#465064" stroke="#C4C4C4" stroke-miterlimit="10"/>
<path d="M52.6865 690.662H74.8781V693.628H52.6865V690.662Z" fill="black"/>
<path d="M52.6865 693.628H74.8781V696.594H52.6865V693.628Z" fill="#465064" stroke="#C4C4C4" stroke-miterlimit="10"/>
<path d="M52.6865 696.594H74.8781V699.56H52.6865V696.594Z" fill="black"/>
<path d="M52.6865 699.56H74.8781V702.526H52.6865V699.56Z" fill="#465064" stroke="#C4C4C4" stroke-miterlimit="10"/>
<path d="M52.6865 702.701H74.8781V705.667H52.6865V702.701Z" fill="black"/>
<path d="M52.6865 705.667H74.8781V708.633H52.6865V705.667Z" fill="#465064" stroke="#C4C4C4" stroke-miterlimit="10"/>
<path d="M52.6865 708.633H74.8781V711.599H52.6865V708.633Z" fill="black"/>
<path d="M52.6865 711.773H74.8781V714.74H52.6865V711.773Z" fill="#465064" stroke="#C4C4C4" stroke-miterlimit="10"/>
<path d="M52.6865 714.74H74.8781V717.706H52.6865V714.74Z" fill="black"/>
<path d="M52.6865 717.706H74.8781V720.672H52.6865V717.706Z" fill="#465064" stroke="#C4C4C4" stroke-miterlimit="10"/>
<path d="M52.6865 720.672H74.8781V723.638H52.6865V720.672Z" fill="black"/>
<path d="M78.0479 681.589H97.5221V684.555H78.0479V681.589Z" fill="#465064" stroke="#C4C4C4" stroke-miterlimit="10"/>
<path d="M78.0479 684.555H97.5221V687.521H78.0479V684.555Z" fill="black"/>
<path d="M78.0479 687.521H97.5221V690.487H78.0479V687.521Z" fill="#465064" stroke="#C4C4C4" stroke-miterlimit="10"/>
<path d="M78.0479 690.662H97.5221V693.628H78.0479V690.662Z" fill="black"/>
<path d="M78.0479 693.628H97.5221V696.594H78.0479V693.628Z" fill="#465064" stroke="#C4C4C4" stroke-miterlimit="10"/>
<path d="M78.0479 696.594H97.5221V699.56H78.0479V696.594Z" fill="black"/>
<path d="M78.0479 699.56H97.5221V702.526H78.0479V699.56Z" fill="#465064" stroke="#C4C4C4" stroke-miterlimit="10"/>
<path d="M78.0479 702.701H97.5221V705.667H78.0479V702.701Z" fill="black"/>
<path d="M78.0479 705.667H97.5221V708.633H78.0479V705.667Z" fill="#465064" stroke="#C4C4C4" stroke-miterlimit="10"/>
<path d="M78.0479 708.633H97.5221V711.599H78.0479V708.633Z" fill="black"/>
<path d="M78.0479 711.773H97.5221V714.74H78.0479V711.773Z" fill="#465064" stroke="#C4C4C4" stroke-miterlimit="10"/>
<path d="M78.0479 714.74H97.5221V717.706H78.0479V714.74Z" fill="black"/>
<path d="M78.0479 717.706H97.5221V720.672H78.0479V717.706Z" fill="#465064" stroke="#C4C4C4" stroke-miterlimit="10"/>
<path d="M78.0479 720.672H97.5221V723.638H78.0479V720.672Z" fill="black"/>
<path d="M29.8906 681.589H49.3649V684.555H29.8906V681.589Z" fill="#465064" stroke="#C4C4C4" stroke-miterlimit="10"/>
<path d="M29.8906 684.555H49.3649V687.521H29.8906V684.555Z" fill="black"/>
<path d="M29.8906 687.521H49.3649V690.487H29.8906V687.521Z" fill="#465064" stroke="#C4C4C4" stroke-miterlimit="10"/>
<path d="M29.8906 690.662H49.3649V693.628H29.8906V690.662Z" fill="black"/>
<path d="M29.8906 693.628H49.3649V696.594H29.8906V693.628Z" fill="#465064" stroke="#C4C4C4" stroke-miterlimit="10"/>
<path d="M29.8906 696.594H49.3649V699.56H29.8906V696.594Z" fill="black"/>
<path d="M29.8906 699.56H49.3649V702.526H29.8906V699.56Z" fill="#465064" stroke="#C4C4C4" stroke-miterlimit="10"/>
<path d="M29.8906 702.701H49.3649V705.667H29.8906V702.701Z" fill="black"/>
<path d="M29.8906 705.667H49.3649V708.633H29.8906V705.667Z" fill="#465064" stroke="#C4C4C4" stroke-miterlimit="10"/>
<path d="M29.8906 708.633H49.3649V711.599H29.8906V708.633Z" fill="black"/>
<path d="M29.8906 711.773H49.3649V714.74H29.8906V711.773Z" fill="#465064" stroke="#C4C4C4" stroke-miterlimit="10"/>
<path d="M29.8906 714.74H49.3649V717.706H29.8906V714.74Z" fill="black"/>
<path d="M29.8906 717.706H49.3649V720.672H29.8906V717.706Z" fill="#465064" stroke="#C4C4C4" stroke-miterlimit="10"/>
<path d="M29.8906 720.672H49.3649V723.638H29.8906V720.672Z" fill="black"/>
<path d="M236.106 681.589H255.581V728H236.106V681.589ZM258.902 681.589H281.094V728H258.902V681.589ZM284.415 681.589H303.889V728H284.415V681.589Z" fill="black"/>
<path d="M258.902 681.589H281.094V684.555H258.902V681.589Z" fill="#465064" stroke="#C4C4C4" stroke-miterlimit="10"/>
<path d="M258.902 684.555H281.094V687.521H258.902V684.555Z" fill="black"/>
<path d="M258.902 687.521H281.094V690.487H258.902V687.521Z" fill="#465064" stroke="#C4C4C4" stroke-miterlimit="10"/>
<path d="M258.902 690.662H281.094V693.628H258.902V690.662Z" fill="black"/>
<path d="M258.902 693.628H281.094V696.594H258.902V693.628Z" fill="#465064" stroke="#C4C4C4" stroke-miterlimit="10"/>
<path d="M258.902 696.594H281.094V699.56H258.902V696.594Z" fill="black"/>
<path d="M258.902 699.56H281.094V702.526H258.902V699.56Z" fill="#465064" stroke="#C4C4C4" stroke-miterlimit="10"/>
<path d="M258.902 702.701H281.094V705.667H258.902V702.701Z" fill="black"/>
<path d="M258.902 705.667H281.094V708.633H258.902V705.667Z" fill="#465064" stroke="#C4C4C4" stroke-miterlimit="10"/>
<path d="M258.902 708.633H281.094V711.599H258.902V708.633Z" fill="black"/>
<path d="M258.902 711.773H281.094V714.74H258.902V711.773Z" fill="#465064" stroke="#C4C4C4" stroke-miterlimit="10"/>
<path d="M258.902 714.74H281.094V717.706H258.902V714.74Z" fill="black"/>
<path d="M258.902 717.706H281.094V720.672H258.902V717.706ZM284.415 681.589H303.889V684.555H284.415V681.589Z" fill="#465064" stroke="#C4C4C4" stroke-miterlimit="10"/>
<path d="M284.415 684.555H303.889V687.521H284.415V684.555Z" fill="black"/>
<path d="M284.415 687.521H303.889V690.487H284.415V687.521Z" fill="#465064" stroke="#C4C4C4" stroke-miterlimit="10"/>
<path d="M284.415 690.662H303.889V693.628H284.415V690.662Z" fill="black"/>
<path d="M284.415 693.628H303.889V696.594H284.415V693.628Z" fill="#465064" stroke="#C4C4C4" stroke-miterlimit="10"/>
<path d="M284.415 696.594H303.889V699.56H284.415V696.594Z" fill="black"/>
<path d="M284.415 699.56H303.889V702.526H284.415V699.56Z" fill="#465064" stroke="#C4C4C4" stroke-miterlimit="10"/>
<path d="M284.415 702.701H303.889V705.667H284.415V702.701Z" fill="black"/>
<path d="M284.415 705.667H303.889V708.633H284.415V705.667Z" fill="#465064" stroke="#C4C4C4" stroke-miterlimit="10"/>
<path d="M284.415 708.633H303.889V711.599H284.415V708.633Z" fill="black"/>
<path d="M284.415 711.773H303.889V714.74H284.415V711.773Z" fill="#465064" stroke="#C4C4C4" stroke-miterlimit="10"/>
<path d="M284.415 714.74H303.889V717.706H284.415V714.74Z" fill="black"/>
<path d="M284.415 717.706H303.889V720.672H284.415V717.706ZM236.106 681.589H255.581V684.555H236.106V681.589Z" fill="#465064" stroke="#C4C4C4" stroke-miterlimit="10"/>
<path d="M236.106 684.555H255.581V687.521H236.106V684.555Z" fill="black"/>
<path d="M236.106 687.521H255.581V690.487H236.106V687.521Z" fill="#465064" stroke="#C4C4C4" stroke-miterlimit="10"/>
<path d="M236.106 690.662H255.581V693.628H236.106V690.662Z" fill="black"/>
<path d="M236.106 693.628H255.581V696.594H236.106V693.628Z" fill="#465064" stroke="#C4C4C4" stroke-miterlimit="10"/>
<path d="M236.106 696.594H255.581V699.56H236.106V696.594Z" fill="black"/>
<path d="M236.106 699.56H255.581V702.526H236.106V699.56Z" fill="#465064" stroke="#C4C4C4" stroke-miterlimit="10"/>
<path d="M236.106 702.701H255.581V705.667H236.106V702.701Z" fill="black"/>
<path d="M236.106 705.667H255.581V708.633H236.106V705.667Z" fill="#465064" stroke="#C4C4C4" stroke-miterlimit="10"/>
<path d="M236.106 708.633H255.581V711.599H236.106V708.633Z" fill="black"/>
<path d="M236.106 711.773H255.581V714.74H236.106V711.773Z" fill="#465064" stroke="#C4C4C4" stroke-miterlimit="10"/>
<path d="M236.106 714.74H255.581V717.706H236.106V714.74Z" fill="black"/>
<path d="M236.106 717.706H255.581V720.672H236.106V717.706Z" fill="#465064" stroke="#C4C4C4" stroke-miterlimit="10"/>
<path d="M236.106 681.589V723.813V681.589ZM239.428 681.589V723.813V681.589ZM242.749 681.589V723.813V681.589ZM245.919 681.589V723.813V681.589ZM249.24 681.589V723.813V681.589ZM252.411 681.589V723.813V681.589ZM255.732 681.589V723.813V681.589ZM284.415 681.589V723.813V681.589ZM287.585 681.589V723.813V681.589ZM290.906 681.589V723.813V681.589ZM294.076 681.589V723.813V681.589ZM297.398 681.589V723.813V681.589ZM300.568 681.589V723.813V681.589ZM303.889 681.589V723.813V681.589ZM258.902 681.589V723.813V681.589ZM262.072 681.589V723.813V681.589ZM265.242 681.589V723.813V681.589ZM268.413 681.589V723.813V681.589ZM271.583 681.589V723.813V681.589ZM274.753 681.589V723.813V681.589ZM277.772 681.589V723.813V681.589ZM280.943 681.589V723.813V681.589Z" fill="black"/>
<path d="M280.943 681.589V723.813M236.106 681.589V723.813V681.589ZM239.428 681.589V723.813V681.589ZM242.749 681.589V723.813V681.589ZM245.919 681.589V723.813V681.589ZM249.24 681.589V723.813V681.589ZM252.411 681.589V723.813V681.589ZM255.732 681.589V723.813V681.589ZM284.415 681.589V723.813V681.589ZM287.585 681.589V723.813V681.589ZM290.906 681.589V723.813V681.589ZM294.076 681.589V723.813V681.589ZM297.398 681.589V723.813V681.589ZM300.568 681.589V723.813V681.589ZM303.889 681.589V723.813V681.589ZM258.902 681.589V723.813V681.589ZM262.072 681.589V723.813V681.589ZM265.242 681.589V723.813V681.589ZM268.413 681.589V723.813V681.589ZM271.583 681.589V723.813V681.589ZM274.753 681.589V723.813V681.589ZM277.772 681.589V723.813V681.589Z" stroke="#C4C4C4" stroke-width="0.05" stroke-miterlimit="10"/>
<path d="M0 723.813H333.629V728H0V723.813Z" fill="#837C78"/>
<path d="M15.0967 681.589H29.8911V723.813H15.0967V681.589ZM303.889 681.589H318.684V723.813H303.889V681.589Z" fill="black"/>
<path opacity="0.15" d="M29.8906 681.589L39.5523 723.813H29.8906V681.589Z" fill="#010101"/>
<path opacity="0.1" d="M318.684 681.589L328.345 723.813H318.684V681.589Z" fill="#010101"/>
<path d="M4.07617 673.214H9.66181V676.704H4.07617V673.214ZM4.07617 685.602H9.66181V689.091H4.07617V685.602Z" fill="black" stroke="#C4C4C4" stroke-width="0.1" stroke-miterlimit="10"/>
<path d="M323.212 676.704H328.797V680.193H323.212V676.704ZM323.212 689.092H328.797V692.581H323.212V689.092Z" fill="black"/>
<path d="M23.3994 685.602H29.8908V688.742H23.3994V685.602ZM23.3994 693.279H29.8908V696.42H23.3994V693.279ZM23.3994 701.13H29.8908V704.271H23.3994V701.13ZM23.3994 708.807H29.8908V711.948H23.3994V708.807ZM23.3994 716.659H29.8908V719.8H23.3994V716.659Z" fill="black"/>
<path opacity="0.35" d="M29.8906 681.589H49.3649V687.347H29.8906V681.589ZM78.0479 681.589H97.5222V687.696H78.0479V681.589ZM52.6861 681.589H74.8777V687.696H52.6861V681.589ZM134.055 681.589H153.53V687.347H134.055V681.589ZM182.213 681.589H201.687V687.696H182.213V681.589Z" fill="#010101"/>
<path d="M15.0967 696.42H23.3997M15.0967 688.568H23.3997H15.0967ZM15.0967 693.279H23.3997H15.0967ZM15.0967 685.602H23.3997H15.0967ZM15.0967 701.13H23.3997H15.0967ZM15.0967 704.271H23.3997H15.0967ZM15.0967 708.807H23.3997H15.0967ZM15.0967 711.948H23.3997H15.0967ZM15.0967 716.659H23.3997H15.0967ZM15.0967 719.8H23.3997H15.0967Z" stroke="#A09790" stroke-width="0.1" stroke-miterlimit="10"/>
<path opacity="0.35" d="M157.002 681.589H179.043V687.696H157.002V681.589ZM236.107 681.589H255.581V687.347H236.107V681.589ZM258.902 681.589H281.094V687.347H258.902V681.589ZM284.415 681.589H303.889V687.696H284.415V681.589Z" fill="#010101"/>
<path d="M26.5693 685.602V688.568V685.602Z" fill="black"/>
<path d="M26.5693 685.602V688.568" stroke="#C4C4C4" stroke-width="0.05" stroke-miterlimit="10"/>
<path d="M29.8908 688.568H23.3994V685.602H29.8908" stroke="#A09790" stroke-width="0.15" stroke-miterlimit="10"/>
<path d="M26.5696 716.659V719.8V716.659ZM29.8908 719.8H23.3994H29.8908ZM26.5696 708.807V711.948V708.807Z" fill="black"/>
<path d="M26.5696 708.807V711.948M26.5696 716.659V719.8V716.659ZM29.8908 719.8H23.3994H29.8908Z" stroke="#C4C4C4" stroke-width="0.05" stroke-miterlimit="10"/>
<path d="M29.8908 719.8H23.3994V716.659H29.8908M29.8908 711.948H23.3994V708.807H29.8908V711.948Z" stroke="#A09790" stroke-width="0.15" stroke-miterlimit="10"/>
<path d="M26.5693 701.13V704.271V701.13Z" fill="black"/>
<path d="M26.5693 701.13V704.271" stroke="#C4C4C4" stroke-width="0.05" stroke-miterlimit="10"/>
<path d="M29.8908 696.42H23.3994V693.279H29.8908M29.8908 704.271H23.3994V701.13H29.8908V704.271Z" stroke="#A09790" stroke-width="0.15" stroke-miterlimit="10"/>
<path d="M310.381 688.568H318.684" stroke="#A09790" stroke-width="0.1" stroke-miterlimit="10"/>
<path d="M26.5693 693.279V696.42V693.279Z" fill="black"/>
<path d="M26.5693 693.279V696.42" stroke="#C4C4C4" stroke-width="0.05" stroke-miterlimit="10"/>
<path d="M310.381 696.42H318.684M310.381 693.279H318.684H310.381ZM310.381 685.602H318.684H310.381ZM310.381 701.13H318.684H310.381ZM310.381 704.271H318.684H310.381ZM310.381 708.807H318.684H310.381ZM310.381 711.948H318.684H310.381ZM310.381 716.659H318.684H310.381ZM310.381 719.8H318.684H310.381Z" stroke="#A09790" stroke-width="0.1" stroke-miterlimit="10"/>
<path d="M323.212 673.214H328.797V676.704H323.212V673.214ZM323.212 685.602H328.797V689.091H323.212V685.602Z" fill="black" stroke="#C4C4C4" stroke-width="0.1" stroke-miterlimit="10"/>
<path d="M310.36 688.544H303.868V685.403H310.36V688.544ZM310.36 696.444H303.868V693.303H310.36V696.444ZM310.36 704.166H303.868V701.026H310.36V704.166ZM310.36 712.063H303.868V708.923H310.36V712.063ZM310.36 719.786H303.868V716.645H310.36V719.786Z" fill="black"/>
<path d="M307.06 685.602V688.568V685.602Z" fill="black"/>
<path d="M307.06 685.602V688.568" stroke="#C4C4C4" stroke-width="0.05" stroke-miterlimit="10"/>
<path d="M303.889 688.568H310.38V685.602H303.889" stroke="#A09790" stroke-width="0.15" stroke-miterlimit="10"/>
<path d="M307.059 716.659V719.8V716.659ZM303.889 719.8H310.38H303.889ZM307.059 708.807V711.948V708.807Z" fill="black"/>
<path d="M307.059 708.807V711.948M307.059 716.659V719.8V716.659ZM303.889 719.8H310.38H303.889Z" stroke="#C4C4C4" stroke-width="0.05" stroke-miterlimit="10"/>
<path d="M303.889 719.8H310.38V716.659H303.889M303.889 711.948H310.38V708.807H303.889V711.948Z" stroke="#A09790" stroke-width="0.15" stroke-miterlimit="10"/>
<path d="M307.06 701.13V704.271V701.13Z" fill="black"/>
<path d="M307.06 701.13V704.271" stroke="#C4C4C4" stroke-width="0.05" stroke-miterlimit="10"/>
<path d="M303.889 704.271H310.38V701.13H303.889" stroke="#A09790" stroke-width="0.15" stroke-miterlimit="10"/>
<path d="M307.06 693.279V696.42V693.279Z" fill="black"/>
<path d="M307.06 693.279V696.42" stroke="#C4C4C4" stroke-width="0.05" stroke-miterlimit="10"/>
<path d="M303.889 696.42H310.38V693.279H303.889" stroke="#A09790" stroke-width="0.15" stroke-miterlimit="10"/>
<path d="M339.667 245.918H382.541V253.42H339.667V245.918ZM349.631 227.074H353.405V235.798H349.631V227.074ZM368.652 227.074H372.426V235.798H368.652V227.074Z" fill="#C9C9C9"/>
</g>
<defs>
<clipPath id="clip0">
<rect width="431" height="727.572" fill="white" transform="translate(0 0.427734)"/>
</clipPath>
</defs>
</svg>
