<svg width="95" height="56" viewBox="0 0 95 56" fill="none" xmlns="http://www.w3.org/2000/svg">
<path d="M12.2709 0.147757C8.6622 0.295514 5.95565 0.738786 4.45201 1.32982C3.39946 1.77309 1.89582 3.1029 1.29437 4.1372C0.241823 5.91029 -0.209269 8.27441 0.0914588 10.1953C0.381146 11.5681 1.0211 12.8462 1.95125 13.9094C2.8814 14.9726 4.07123 15.7861 5.40905 16.2736C6.74688 16.761 8.18881 16.9064 9.5995 16.6961C11.0102 16.4858 12.3433 15.9267 13.4738 15.0712C15.2782 13.5937 17.8344 8.71768 20.0898 2.65963C20.6913 1.0343 20.6913 0.443272 20.3906 0.295514C20.0898 0.147757 13.6242 0 12.2709 0.147757ZM49.7115 0.147757C45.9524 0.591029 42.4941 2.80739 40.2386 5.91029L9.71474 54.9657C9.56438 55.409 9.56438 55.409 9.86511 55.7045C10.1658 56 10.3162 56 14.5264 56C18.2855 55.8522 18.7366 55.8522 20.0898 55.5567C23.5482 54.6702 26.2548 52.6016 28.2095 49.6464C30.465 46.3958 58.583 1.0343 58.7334 0.738786L58.4326 0.295514C58.2823 0 57.8312 0 54.5232 0L49.7115 0.147757ZM86.2499 0.147757C82.9419 0.591029 79.9347 2.0686 77.6792 4.43272L61.4399 30.1425L45.9524 55.1135C45.8021 56 46.1028 56 49.7115 56L54.5232 55.8522C58.7334 55.409 62.3421 53.1926 64.5975 49.7942C67.4545 45.3615 94.971 1.18206 94.971 0.886544C95.1214 0 94.8207 0 90.7609 0L86.0996 0.147757H86.2499Z" fill="#FED138"/>
</svg>
