<svg width="321" height="42" viewBox="0 0 321 42" fill="none" xmlns="http://www.w3.org/2000/svg">
<g clip-path="url(#clip0)">
<path d="M131.086 10.0729C129.297 10.1459 127.954 10.3647 127.208 10.6565C126.686 10.8754 125.94 11.5319 125.642 12.0425C125.12 12.9179 124.896 14.085 125.045 15.0333C125.189 15.7111 125.506 16.3421 125.968 16.867C126.429 17.3919 127.019 17.7935 127.683 18.0342C128.346 18.2748 129.062 18.3466 129.761 18.2428C130.461 18.1389 131.122 17.8629 131.683 17.4406C132.578 16.7111 133.846 14.3039 134.965 11.313C135.263 10.5106 135.263 10.2188 135.114 10.1459C134.965 10.0729 131.758 10 131.086 10.0729ZM149.657 10.0729C147.793 10.2918 146.077 11.386 144.959 12.9179L129.819 37.1362C129.744 37.355 129.744 37.355 129.893 37.5009C130.042 37.6468 130.117 37.6468 132.205 37.6468C134.07 37.5739 134.293 37.5739 134.965 37.428C136.68 36.9903 138.023 35.9691 138.992 34.5101C140.111 32.9053 154.058 10.5106 154.132 10.3647L153.983 10.1459C153.908 10 153.685 10 152.044 10L149.657 10.0729ZM167.78 10.0729C166.14 10.2918 164.648 11.0213 163.529 12.1884L155.475 24.8811L147.793 37.2092C147.718 37.6468 147.867 37.6468 149.657 37.6468L152.044 37.5739C154.132 37.355 155.922 36.2608 157.041 34.5831C158.458 32.3947 172.106 10.5836 172.106 10.4377C172.181 10 172.032 10 170.018 10L167.706 10.0729H167.78ZM270.703 16.6382C265.109 17.2947 260.933 21.5985 260.187 27.2154C260.038 28.6014 260.112 30.2792 260.485 31.5923C260.709 32.3947 261.38 33.6348 261.902 34.3642C263.17 36.042 265.258 37.2092 267.57 37.7198C273.089 38.8869 278.534 36.3338 280.995 31.4464C281.368 30.7169 281.443 30.6439 281.517 30.8628C281.592 31.0816 281.443 32.1029 281.368 32.6135L280.846 33.7807C280.473 34.656 280.473 34.729 281.144 35.3125C282.561 36.6256 284.351 37.5009 286.439 37.7927C287.185 37.9386 288.602 38.0116 289.497 37.9386C291.213 37.7927 292.406 37.5009 293.972 36.7715C298.149 34.729 300.684 30.498 300.684 25.7565C300.684 21.0879 297.85 17.7324 292.928 16.7111C291.958 16.5652 289.05 16.5652 288.08 16.7841C286.304 17.1218 284.633 17.8575 283.196 18.9333C281.76 20.0091 280.598 21.3957 279.802 22.9845L279.354 23.8599C279.205 23.8599 279.354 22.328 279.503 21.8903C279.503 21.5985 279.727 21.0879 279.951 20.7232L280.249 19.8478C280.175 19.629 279.205 18.7536 278.534 18.3159C276.746 17.1592 274.635 16.5731 272.493 16.6382H270.703ZM273.91 20.0667C275.256 20.3897 276.442 21.1665 277.261 22.2605C278.079 23.3545 278.477 24.6957 278.385 26.0483C278.385 31.1546 274.432 35.0937 269.733 34.656C268.949 34.6186 268.181 34.4304 267.471 34.102C266.762 33.7737 266.126 33.3117 265.599 32.7425C265.073 32.1733 264.666 31.5081 264.403 30.785C264.14 30.0619 264.025 29.2951 264.065 28.5285C264.065 24.2976 266.75 20.7961 270.554 19.9937C271.449 19.7749 273.015 19.8478 273.91 20.0667ZM292.182 20.0667C294.345 20.5773 295.837 22.0362 296.508 24.0058C296.657 24.6623 296.657 24.8082 296.657 26.1212C296.657 27.3613 296.657 27.5072 296.433 28.3096C296.06 29.9145 295.315 31.2275 294.27 32.2488C293.077 33.4889 291.511 34.2913 289.945 34.5831C289.05 34.729 287.558 34.656 286.663 34.4372C285.022 33.9265 283.755 32.9053 283.009 31.5193C282.487 30.3522 282.263 29.185 282.412 27.7261C282.785 23.714 285.321 20.7232 288.975 19.9937C289.721 19.7749 291.436 19.8478 292.182 20.0667ZM250.939 16.9299C249.596 17.1488 248.478 17.9512 247.881 19.1183C246.376 25.2261 244.959 31.3543 243.63 37.5009C243.63 37.6468 243.854 37.6468 248.85 37.6468L254.146 37.5739L254.668 37.428L255.563 36.9903C256.383 36.4797 257.204 35.3855 257.353 34.656V34.3642H248.105L248.179 34.1454L250.118 25.5377L251.983 17.0029C251.983 16.857 251.908 16.857 251.685 16.857L250.939 16.9299ZM308.814 17.0029C307.471 17.3676 306.427 18.17 305.831 19.3372C304.449 25.3212 303.057 31.3029 301.654 37.2821L301.579 37.5739H301.878C303.593 37.5739 305.383 36.2608 305.98 34.656C306.411 33.1927 306.76 31.7072 307.024 30.2063L307.099 29.9145H310.529L314.557 29.7686C317.838 29.1121 320.001 27.2884 320.821 24.2976C321.045 23.5681 321.045 21.6715 320.896 20.942C320.598 19.9937 320.225 19.2642 319.479 18.6077C318.849 17.9519 318.05 17.4732 317.167 17.2217C316.197 16.9299 315.601 16.857 312.394 16.857C309.709 16.857 309.336 16.857 308.814 17.0029ZM315.452 20.4314C316.123 20.7232 316.496 21.0879 316.794 21.5985C317.018 21.9633 317.018 22.1821 317.092 22.6198C317.167 24.4435 316.048 25.9024 314.184 26.486L310.753 26.6319L307.844 26.5589L309.112 20.7961L309.261 20.1396H312.095L315.004 20.2126L315.452 20.4314ZM179.49 17.0758C178.968 17.2217 178.296 17.6594 177.998 18.0241L165.692 37.5739L167.184 37.6468C168.899 37.6468 169.347 37.5739 170.093 37.0633C170.54 36.6985 170.764 36.4067 171.733 34.8019L172.405 33.7077H182.398L182.697 35.6773L183.07 37.6468H183.443C184.636 37.5009 185.68 36.6985 186.128 35.6043C186.5 34.729 186.5 34.8749 184.86 25.5377L183.293 17.0029L181.653 16.9299C180.086 16.9299 179.863 16.9299 179.49 17.0758ZM181.205 25.3918L182.026 30.4251H174.269L177.327 25.3918L180.385 20.3584L181.205 25.3918ZM192.765 17.0029C192.046 17.2062 191.393 17.5887 190.87 18.113C190.347 18.6372 189.972 19.2853 189.782 19.9937L189.707 20.2126H192.84L196.047 20.2855L192.169 37.5009C192.169 37.6468 192.169 37.6468 192.616 37.6468C194.406 37.6468 196.121 36.4067 196.569 34.729C196.718 34.4372 199.627 21.5256 199.85 20.4314V20.2126H201.715C203.505 20.1396 203.654 20.1396 204.176 19.9937C205.295 19.556 206.115 18.8995 206.637 17.8783L207.01 17.1488V16.9299H200.074L192.765 17.0029ZM212.306 17.0758C211.634 17.2217 211.038 17.5865 210.516 18.0971C209.546 19.0454 209.695 18.4618 207.458 28.5285L205.444 37.5739L211.485 37.6468L217.526 37.5739L217.974 37.428C218.604 37.1825 219.167 36.798 219.62 36.3045C220.072 35.811 220.402 35.2219 220.584 34.5831L220.659 34.3642H215.289C210.217 34.3642 209.919 34.3642 209.919 34.2183L210.59 31.5923L211.187 28.8932C211.187 28.7473 211.485 28.7473 215.14 28.7473C219.54 28.6744 219.391 28.7473 220.435 28.2367C221.255 27.799 222.225 26.5589 222.449 25.6836V25.4647H217.228C212.231 25.4647 211.933 25.4647 211.933 25.3188C212.348 23.7726 212.721 22.2159 213.051 20.6502L213.126 20.1396H217.153C221.628 20.1396 221.628 20.1396 222.523 19.7019C223.418 19.2642 224.388 18.0971 224.537 17.1488L224.612 16.9299H218.645C213.723 16.9299 212.678 16.9299 212.306 17.0758ZM229.683 17.0029C229.012 17.2217 228.415 17.8053 228.117 18.4618C227.968 18.7536 227.222 22.0362 225.805 28.1638L223.717 37.5739L224.835 37.6468C225.879 37.5739 225.954 37.5739 226.401 37.355C226.998 37.0633 227.595 36.4797 227.819 35.9691L228.564 32.7594L229.161 29.9145H233.039L234.456 33.7807L235.948 37.6468L236.321 37.5739C237.738 37.428 238.782 36.2608 238.782 34.8749C238.782 34.3642 238.633 33.9265 237.663 31.5923L236.843 29.6956L237.514 29.5497C239.082 29.2238 240.493 28.3924 241.521 27.1888C242.549 25.9852 243.134 24.479 243.182 22.9116C243.182 21.5985 243.108 21.015 242.586 20.0667C242.362 19.4831 242.138 19.2642 241.616 18.7536C240.945 18.0971 240.423 17.7324 239.602 17.4406C238.484 16.9299 238.633 17.0029 234.158 16.9299L229.683 17.0029ZM236.768 20.2126C238.484 20.5043 239.528 21.9633 239.155 23.6411C238.857 25.1 237.812 26.1212 236.246 26.486C235.724 26.6319 235.426 26.6319 232.815 26.6319L229.981 26.5589L231.398 20.2855V20.1396H233.86L236.768 20.2126Z" fill="#FED138"/>
</g>
<path d="M12.924 37.432C11.22 37.432 9.684 37.168 8.316 36.64C6.948 36.088 5.784 35.284 4.824 34.228C3.864 33.148 3.12 31.816 2.592 30.232C2.064 28.624 1.8 26.752 1.8 24.616C1.8 22.504 2.064 20.632 2.592 19C3.12 17.344 3.864 15.964 4.824 14.86C5.784 13.732 6.948 12.88 8.316 12.304C9.684 11.728 11.22 11.44 12.924 11.44C15.252 11.44 17.172 11.92 18.684 12.88C20.196 13.816 21.408 15.304 22.32 17.344L17.604 19.792C17.268 18.736 16.74 17.896 16.02 17.272C15.324 16.624 14.292 16.3 12.924 16.3C11.316 16.3 10.02 16.828 9.036 17.884C8.076 18.916 7.596 20.428 7.596 22.42V26.452C7.596 28.444 8.076 29.968 9.036 31.024C10.02 32.056 11.316 32.572 12.924 32.572C14.268 32.572 15.336 32.212 16.128 31.492C16.944 30.748 17.544 29.86 17.928 28.828L22.392 31.42C21.456 33.34 20.22 34.828 18.684 35.884C17.172 36.916 15.252 37.432 12.924 37.432ZM45.0132 20.512H44.9052L43.0692 24.184L38.1732 33.076L33.3852 24.22L31.4772 20.26H31.3692V37H26.2212V11.872H32.0172L38.1732 23.644H38.2452L44.3292 11.872H50.1612V37H45.0132V20.512ZM63.8533 37.432C61.6453 37.432 59.7733 37.06 58.2373 36.316C56.7013 35.548 55.3933 34.564 54.3133 33.364L57.9133 29.728C59.6173 31.648 61.7173 32.608 64.2133 32.608C65.5573 32.608 66.5533 32.332 67.2013 31.78C67.8493 31.228 68.1733 30.496 68.1733 29.584C68.1733 28.888 67.9813 28.312 67.5973 27.856C67.2133 27.376 66.4333 27.052 65.2573 26.884L62.7733 26.56C60.1093 26.224 58.1533 25.42 56.9053 24.148C55.6813 22.876 55.0693 21.184 55.0693 19.072C55.0693 17.944 55.2853 16.912 55.7173 15.976C56.1493 15.04 56.7613 14.236 57.5533 13.564C58.3693 12.892 59.3533 12.376 60.5053 12.016C61.6813 11.632 63.0133 11.44 64.5013 11.44C66.3973 11.44 68.0653 11.74 69.5053 12.34C70.9453 12.94 72.1813 13.816 73.2133 14.968L69.5773 18.64C68.9773 17.944 68.2453 17.38 67.3813 16.948C66.5413 16.492 65.4733 16.264 64.1773 16.264C62.9533 16.264 62.0413 16.48 61.4413 16.912C60.8413 17.344 60.5413 17.944 60.5413 18.712C60.5413 19.576 60.7693 20.2 61.2253 20.584C61.7053 20.968 62.4733 21.244 63.5293 21.412L66.0133 21.808C68.6053 22.216 70.5253 23.02 71.7733 24.22C73.0213 25.396 73.6453 27.076 73.6453 29.26C73.6453 30.46 73.4293 31.564 72.9973 32.572C72.5653 33.58 71.9293 34.444 71.0893 35.164C70.2733 35.884 69.2533 36.448 68.0293 36.856C66.8053 37.24 65.4133 37.432 63.8533 37.432ZM97.3938 41.968V9.64H101.93V41.968H97.3938Z" fill="white"/>
<defs>
<clipPath id="clip0">
<rect width="196" height="28" fill="white" transform="translate(125 10)"/>
</clipPath>
</defs>
</svg>
