<svg width="600" height="42" viewBox="0 0 600 42" fill="none" xmlns="http://www.w3.org/2000/svg">
<g clip-path="url(#clip0_1802_864)">
<path d="M410.086 9.07295C408.297 9.14589 406.954 9.36473 406.208 9.65652C405.686 9.87536 404.94 10.5319 404.642 11.0425C404.12 11.9179 403.896 13.085 404.045 14.0333C404.189 14.7111 404.506 15.3421 404.968 15.867C405.429 16.3919 406.019 16.7935 406.683 17.0342C407.346 17.2748 408.062 17.3466 408.761 17.2428C409.461 17.1389 410.122 16.8629 410.683 16.4406C411.578 15.7111 412.846 13.3039 413.965 10.313C414.263 9.51063 414.263 9.21884 414.114 9.14589C413.965 9.07295 410.758 9 410.086 9.07295ZM428.657 9.07295C426.793 9.29179 425.077 10.386 423.959 11.9179L408.819 36.1362C408.744 36.355 408.744 36.355 408.893 36.5009C409.042 36.6468 409.117 36.6468 411.205 36.6468C413.07 36.5739 413.293 36.5739 413.965 36.428C415.68 35.9903 417.023 34.9691 417.992 33.5101C419.111 31.9053 433.058 9.51063 433.132 9.36473L432.983 9.14589C432.908 9 432.685 9 431.044 9L428.657 9.07295ZM446.78 9.07295C445.14 9.29179 443.648 10.0213 442.529 11.1884L434.475 23.8811L426.793 36.2092C426.718 36.6468 426.867 36.6468 428.657 36.6468L431.044 36.5739C433.132 36.355 434.922 35.2608 436.041 33.5831C437.458 31.3947 451.106 9.58357 451.106 9.43768C451.181 9 451.032 9 449.018 9L446.706 9.07295H446.78ZM549.703 15.6382C544.109 16.2947 539.933 20.5985 539.187 26.2154C539.038 27.6014 539.112 29.2792 539.485 30.5923C539.709 31.3947 540.38 32.6348 540.902 33.3642C542.17 35.042 544.258 36.2092 546.57 36.7198C552.089 37.8869 557.534 35.3338 559.995 30.4464C560.368 29.7169 560.443 29.6439 560.517 29.8628C560.592 30.0816 560.443 31.1029 560.368 31.6135L559.846 32.7807C559.473 33.656 559.473 33.729 560.144 34.3125C561.561 35.6256 563.351 36.5009 565.439 36.7927C566.185 36.9386 567.602 37.0116 568.497 36.9386C570.213 36.7927 571.406 36.5009 572.972 35.7715C577.149 33.729 579.684 29.498 579.684 24.7565C579.684 20.0879 576.85 16.7324 571.928 15.7111C570.958 15.5652 568.05 15.5652 567.08 15.7841C565.304 16.1218 563.633 16.8575 562.196 17.9333C560.76 19.0091 559.598 20.3957 558.802 21.9845L558.354 22.8599C558.205 22.8599 558.354 21.328 558.503 20.8903C558.503 20.5985 558.727 20.0879 558.951 19.7232L559.249 18.8478C559.175 18.629 558.205 17.7536 557.534 17.3159C555.746 16.1592 553.635 15.5731 551.493 15.6382H549.703ZM552.91 19.0667C554.256 19.3897 555.442 20.1665 556.261 21.2605C557.079 22.3545 557.477 23.6957 557.385 25.0483C557.385 30.1546 553.432 34.0937 548.733 33.656C547.949 33.6186 547.181 33.4304 546.471 33.102C545.762 32.7737 545.126 32.3117 544.599 31.7425C544.073 31.1733 543.666 30.5081 543.403 29.785C543.14 29.0619 543.025 28.2951 543.065 27.5285C543.065 23.2976 545.75 19.7961 549.554 18.9937C550.449 18.7749 552.015 18.8478 552.91 19.0667ZM571.182 19.0667C573.345 19.5773 574.837 21.0362 575.508 23.0058C575.657 23.6623 575.657 23.8082 575.657 25.1212C575.657 26.3613 575.657 26.5072 575.433 27.3096C575.06 28.9145 574.315 30.2275 573.27 31.2488C572.077 32.4889 570.511 33.2913 568.945 33.5831C568.05 33.729 566.558 33.656 565.663 33.4372C564.022 32.9265 562.755 31.9053 562.009 30.5193C561.487 29.3522 561.263 28.185 561.412 26.7261C561.785 22.714 564.321 19.7232 567.975 18.9937C568.721 18.7749 570.436 18.8478 571.182 19.0667ZM529.939 15.9299C528.596 16.1488 527.478 16.9512 526.881 18.1183C525.376 24.2261 523.959 30.3543 522.63 36.5009C522.63 36.6468 522.854 36.6468 527.85 36.6468L533.146 36.5739L533.668 36.428L534.563 35.9903C535.383 35.4797 536.204 34.3855 536.353 33.656V33.3642H527.105L527.179 33.1454L529.118 24.5377L530.983 16.0029C530.983 15.857 530.908 15.857 530.685 15.857L529.939 15.9299ZM587.814 16.0029C586.471 16.3676 585.427 17.17 584.831 18.3372C583.449 24.3212 582.057 30.3029 580.654 36.2821L580.579 36.5739H580.878C582.593 36.5739 584.383 35.2608 584.98 33.656C585.411 32.1927 585.76 30.7072 586.024 29.2063L586.099 28.9145H589.529L593.557 28.7686C596.838 28.1121 599.001 26.2884 599.821 23.2976C600.045 22.5681 600.045 20.6715 599.896 19.942C599.598 18.9937 599.225 18.2642 598.479 17.6077C597.849 16.9519 597.05 16.4732 596.167 16.2217C595.197 15.9299 594.601 15.857 591.394 15.857C588.709 15.857 588.336 15.857 587.814 16.0029ZM594.452 19.4314C595.123 19.7232 595.496 20.0879 595.794 20.5985C596.018 20.9633 596.018 21.1821 596.092 21.6198C596.167 23.4435 595.048 24.9024 593.184 25.486L589.753 25.6319L586.844 25.5589L588.112 19.7961L588.261 19.1396H591.095L594.004 19.2126L594.452 19.4314ZM458.49 16.0758C457.968 16.2217 457.296 16.6594 456.998 17.0241L444.692 36.5739L446.184 36.6468C447.899 36.6468 448.347 36.5739 449.093 36.0633C449.54 35.6985 449.764 35.4067 450.733 33.8019L451.405 32.7077H461.398L461.697 34.6773L462.07 36.6468H462.443C463.636 36.5009 464.68 35.6985 465.128 34.6043C465.5 33.729 465.5 33.8749 463.86 24.5377L462.293 16.0029L460.653 15.9299C459.086 15.9299 458.863 15.9299 458.49 16.0758ZM460.205 24.3918L461.026 29.4251H453.269L456.327 24.3918L459.385 19.3584L460.205 24.3918ZM471.765 16.0029C471.046 16.2062 470.393 16.5887 469.87 17.113C469.347 17.6372 468.972 18.2853 468.782 18.9937L468.707 19.2126H471.84L475.047 19.2855L471.169 36.5009C471.169 36.6468 471.169 36.6468 471.616 36.6468C473.406 36.6468 475.121 35.4067 475.569 33.729C475.718 33.4372 478.627 20.5256 478.85 19.4314V19.2126H480.715C482.505 19.1396 482.654 19.1396 483.176 18.9937C484.295 18.556 485.115 17.8995 485.637 16.8783L486.01 16.1488V15.9299H479.074L471.765 16.0029ZM491.306 16.0758C490.634 16.2217 490.038 16.5865 489.516 17.0971C488.546 18.0454 488.695 17.4618 486.458 27.5285L484.444 36.5739L490.485 36.6468L496.526 36.5739L496.974 36.428C497.604 36.1825 498.167 35.798 498.62 35.3045C499.072 34.811 499.402 34.2219 499.584 33.5831L499.659 33.3642H494.289C489.217 33.3642 488.919 33.3642 488.919 33.2183L489.59 30.5923L490.187 27.8932C490.187 27.7473 490.485 27.7473 494.14 27.7473C498.54 27.6744 498.391 27.7473 499.435 27.2367C500.255 26.799 501.225 25.5589 501.449 24.6836V24.4647H496.228C491.231 24.4647 490.933 24.4647 490.933 24.3188C491.348 22.7726 491.721 21.2159 492.051 19.6502L492.126 19.1396H496.153C500.628 19.1396 500.628 19.1396 501.523 18.7019C502.418 18.2642 503.388 17.0971 503.537 16.1488L503.612 15.9299H497.645C492.723 15.9299 491.678 15.9299 491.306 16.0758ZM508.683 16.0029C508.012 16.2217 507.415 16.8053 507.117 17.4618C506.968 17.7536 506.222 21.0362 504.805 27.1638L502.717 36.5739L503.835 36.6468C504.879 36.5739 504.954 36.5739 505.401 36.355C505.998 36.0633 506.595 35.4797 506.819 34.9691L507.564 31.7594L508.161 28.9145H512.039L513.456 32.7807L514.948 36.6468L515.321 36.5739C516.738 36.428 517.782 35.2608 517.782 33.8749C517.782 33.3642 517.633 32.9265 516.663 30.5923L515.843 28.6956L516.514 28.5497C518.082 28.2238 519.493 27.3924 520.521 26.1888C521.549 24.9852 522.134 23.479 522.182 21.9116C522.182 20.5985 522.108 20.015 521.586 19.0667C521.362 18.4831 521.138 18.2642 520.616 17.7536C519.945 17.0971 519.423 16.7324 518.602 16.4406C517.484 15.9299 517.633 16.0029 513.158 15.9299L508.683 16.0029ZM515.768 19.2126C517.484 19.5043 518.528 20.9633 518.155 22.6411C517.857 24.1 516.812 25.1212 515.246 25.486C514.724 25.6319 514.426 25.6319 511.815 25.6319L508.981 25.5589L510.398 19.2855V19.1396H512.86L515.768 19.2126Z" fill="#FED138"/>
</g>
<path d="M2.772 37V11.872H19.872V16.732H8.244V21.88H18.216V26.704H8.244V32.14H19.872V37H2.772ZM22.5152 37L28.7432 27.388L22.5872 18.1H28.6352L32.1632 24.04H32.3072L35.7272 18.1H41.3432L35.0792 27.568L41.3792 37H35.3312L31.6952 30.844H31.5512L28.0592 37H22.5152ZM51.8172 37.432C50.3772 37.432 49.0932 37.204 47.9652 36.748C46.8372 36.268 45.8772 35.608 45.0852 34.768C44.3172 33.904 43.7292 32.86 43.3212 31.636C42.9372 30.412 42.7452 29.044 42.7452 27.532C42.7452 26.044 42.9372 24.7 43.3212 23.5C43.7052 22.276 44.2692 21.232 45.0132 20.368C45.7812 19.504 46.7172 18.844 47.8212 18.388C48.9252 17.908 50.1852 17.668 51.6012 17.668C53.1612 17.668 54.4932 17.932 55.5972 18.46C56.7252 18.988 57.6372 19.696 58.3332 20.584C59.0532 21.472 59.5692 22.504 59.8812 23.68C60.2172 24.832 60.3852 26.044 60.3852 27.316V28.9H48.2532V29.188C48.2532 30.436 48.5892 31.432 49.2612 32.176C49.9332 32.896 50.9892 33.256 52.4292 33.256C53.5332 33.256 54.4332 33.04 55.1292 32.608C55.8252 32.152 56.4732 31.612 57.0732 30.988L59.7372 34.3C58.8972 35.284 57.7932 36.052 56.4252 36.604C55.0812 37.156 53.5452 37.432 51.8172 37.432ZM51.7092 21.592C50.6292 21.592 49.7772 21.952 49.1532 22.672C48.5532 23.368 48.2532 24.304 48.2532 25.48V25.768H54.8772V25.444C54.8772 24.292 54.6132 23.368 54.0852 22.672C53.5812 21.952 52.7892 21.592 51.7092 21.592ZM71.7801 37.432C70.3641 37.432 69.1041 37.204 68.0001 36.748C66.8961 36.268 65.9721 35.608 65.2281 34.768C64.4841 33.904 63.9201 32.86 63.5361 31.636C63.1521 30.412 62.9601 29.044 62.9601 27.532C62.9601 26.02 63.1521 24.664 63.5361 23.464C63.9201 22.24 64.4841 21.196 65.2281 20.332C65.9721 19.468 66.8961 18.808 68.0001 18.352C69.1041 17.896 70.3641 17.668 71.7801 17.668C73.7001 17.668 75.2961 18.1 76.5681 18.964C77.8641 19.828 78.7881 21.04 79.3401 22.6L75.0201 24.472C74.8521 23.752 74.5041 23.14 73.9761 22.636C73.4481 22.132 72.7161 21.88 71.7801 21.88C70.7001 21.88 69.8841 22.24 69.3321 22.96C68.7801 23.656 68.5041 24.604 68.5041 25.804V29.332C68.5041 30.532 68.7801 31.48 69.3321 32.176C69.8841 32.872 70.7001 33.22 71.7801 33.22C72.7401 33.22 73.4961 32.968 74.0481 32.464C74.6241 31.936 75.0441 31.252 75.3081 30.412L79.4481 32.212C78.8241 34.012 77.8521 35.332 76.5321 36.172C75.2361 37.012 73.6521 37.432 71.7801 37.432ZM93.9057 33.832H93.7257C93.5577 34.312 93.3297 34.768 93.0417 35.2C92.7777 35.632 92.4297 36.016 91.9977 36.352C91.5657 36.688 91.0497 36.952 90.4497 37.144C89.8737 37.336 89.2017 37.432 88.4337 37.432C86.4897 37.432 85.0137 36.796 84.0057 35.524C83.0217 34.228 82.5297 32.38 82.5297 29.98V18.1H87.8577V29.512C87.8577 30.664 88.0617 31.552 88.4697 32.176C88.8777 32.8 89.5737 33.112 90.5577 33.112C90.9657 33.112 91.3737 33.052 91.7817 32.932C92.1897 32.812 92.5497 32.644 92.8617 32.428C93.1737 32.188 93.4257 31.9 93.6177 31.564C93.8097 31.228 93.9057 30.832 93.9057 30.376V18.1H99.2337V37H93.9057V33.832ZM110.815 37C108.967 37 107.563 36.532 106.603 35.596C105.667 34.66 105.199 33.292 105.199 31.492V22.24H102.535V18.1H103.867C104.587 18.1 105.079 17.932 105.343 17.596C105.607 17.236 105.739 16.732 105.739 16.084V12.988H110.527V18.1H114.271V22.24H110.527V32.86H113.983V37H110.815ZM120.636 16.084C119.556 16.084 118.764 15.844 118.26 15.364C117.78 14.86 117.54 14.224 117.54 13.456V12.664C117.54 11.896 117.78 11.272 118.26 10.792C118.764 10.288 119.556 10.036 120.636 10.036C121.716 10.036 122.496 10.288 122.976 10.792C123.48 11.272 123.732 11.896 123.732 12.664V13.456C123.732 14.224 123.48 14.86 122.976 15.364C122.496 15.844 121.716 16.084 120.636 16.084ZM117.972 18.1H123.3V37H117.972V18.1ZM132.305 37L126.113 18.1H131.369L133.709 25.732L135.473 32.572H135.761L137.525 25.732L139.793 18.1H144.833L138.641 37H132.305ZM155.247 37.432C153.807 37.432 152.523 37.204 151.395 36.748C150.267 36.268 149.307 35.608 148.515 34.768C147.747 33.904 147.159 32.86 146.751 31.636C146.367 30.412 146.175 29.044 146.175 27.532C146.175 26.044 146.367 24.7 146.751 23.5C147.135 22.276 147.699 21.232 148.443 20.368C149.211 19.504 150.147 18.844 151.251 18.388C152.355 17.908 153.615 17.668 155.031 17.668C156.591 17.668 157.923 17.932 159.027 18.46C160.155 18.988 161.067 19.696 161.763 20.584C162.483 21.472 162.999 22.504 163.311 23.68C163.647 24.832 163.815 26.044 163.815 27.316V28.9H151.683V29.188C151.683 30.436 152.019 31.432 152.691 32.176C153.363 32.896 154.419 33.256 155.859 33.256C156.963 33.256 157.863 33.04 158.559 32.608C159.255 32.152 159.903 31.612 160.503 30.988L163.167 34.3C162.327 35.284 161.223 36.052 159.855 36.604C158.511 37.156 156.975 37.432 155.247 37.432ZM155.139 21.592C154.059 21.592 153.207 21.952 152.583 22.672C151.983 23.368 151.683 24.304 151.683 25.48V25.768H158.307V25.444C158.307 24.292 158.043 23.368 157.515 22.672C157.011 21.952 156.219 21.592 155.139 21.592ZM176.374 11.872H185.842C187.498 11.872 189.01 12.136 190.378 12.664C191.746 13.192 192.91 13.984 193.87 15.04C194.83 16.072 195.574 17.38 196.102 18.964C196.63 20.524 196.894 22.348 196.894 24.436C196.894 26.524 196.63 28.36 196.102 29.944C195.574 31.504 194.83 32.812 193.87 33.868C192.91 34.9 191.746 35.68 190.378 36.208C189.01 36.736 187.498 37 185.842 37H176.374V11.872ZM185.842 32.14C187.474 32.14 188.758 31.684 189.694 30.772C190.63 29.86 191.098 28.396 191.098 26.38V22.492C191.098 20.476 190.63 19.012 189.694 18.1C188.758 17.188 187.474 16.732 185.842 16.732H181.846V32.14H185.842ZM215.155 37C214.195 37 213.391 36.7 212.743 36.1C212.119 35.5 211.723 34.696 211.555 33.688H211.339C211.051 34.912 210.415 35.848 209.431 36.496C208.447 37.12 207.235 37.432 205.795 37.432C203.899 37.432 202.447 36.928 201.439 35.92C200.431 34.912 199.927 33.58 199.927 31.924C199.927 29.932 200.647 28.456 202.087 27.496C203.551 26.512 205.531 26.02 208.027 26.02H211.015V24.832C211.015 23.92 210.775 23.2 210.295 22.672C209.815 22.12 209.011 21.844 207.883 21.844C206.827 21.844 205.987 22.072 205.363 22.528C204.739 22.984 204.223 23.5 203.815 24.076L200.647 21.268C201.415 20.14 202.375 19.264 203.527 18.64C204.703 17.992 206.287 17.668 208.279 17.668C210.967 17.668 212.983 18.256 214.327 19.432C215.671 20.608 216.343 22.324 216.343 24.58V32.86H218.107V37H215.155ZM207.775 33.724C208.663 33.724 209.419 33.532 210.043 33.148C210.691 32.764 211.015 32.14 211.015 31.276V29.044H208.423C206.335 29.044 205.291 29.752 205.291 31.168V31.708C205.291 32.404 205.507 32.92 205.939 33.256C206.371 33.568 206.983 33.724 207.775 33.724ZM228.091 37.432C226.267 37.432 224.731 37.144 223.483 36.568C222.235 35.968 221.119 35.128 220.135 34.048L223.267 30.88C223.939 31.624 224.683 32.212 225.499 32.644C226.315 33.076 227.239 33.292 228.271 33.292C229.327 33.292 230.059 33.136 230.467 32.824C230.875 32.488 231.079 32.044 231.079 31.492C231.079 30.604 230.443 30.076 229.171 29.908L227.119 29.656C222.871 29.128 220.747 27.184 220.747 23.824C220.747 22.912 220.915 22.084 221.251 21.34C221.611 20.572 222.103 19.924 222.727 19.396C223.375 18.844 224.143 18.424 225.031 18.136C225.943 17.824 226.963 17.668 228.091 17.668C229.075 17.668 229.939 17.74 230.683 17.884C231.451 18.004 232.123 18.196 232.699 18.46C233.299 18.7 233.839 19.012 234.319 19.396C234.823 19.756 235.315 20.164 235.795 20.62L232.735 23.752C232.135 23.152 231.451 22.684 230.683 22.348C229.939 21.988 229.171 21.808 228.379 21.808C227.467 21.808 226.819 21.952 226.435 22.24C226.051 22.528 225.859 22.912 225.859 23.392C225.859 23.896 225.991 24.292 226.255 24.58C226.543 24.844 227.071 25.036 227.839 25.156L229.963 25.444C234.115 25.996 236.191 27.892 236.191 31.132C236.191 32.044 235.999 32.884 235.615 33.652C235.231 34.42 234.679 35.092 233.959 35.668C233.263 36.22 232.411 36.652 231.403 36.964C230.419 37.276 229.315 37.432 228.091 37.432ZM239.824 10.36H245.152V21.304H245.368C245.704 20.32 246.292 19.468 247.132 18.748C247.972 18.028 249.136 17.668 250.624 17.668C252.568 17.668 254.032 18.316 255.016 19.612C256.024 20.908 256.528 22.756 256.528 25.156V37H251.2V25.588C251.2 24.364 251.008 23.464 250.624 22.888C250.24 22.288 249.556 21.988 248.572 21.988C248.14 21.988 247.72 22.048 247.312 22.168C246.904 22.264 246.532 22.432 246.196 22.672C245.884 22.912 245.632 23.212 245.44 23.572C245.248 23.908 245.152 24.304 245.152 24.76V37H239.824V10.36ZM261.269 10.36H266.597V21.268H266.777C267.041 20.212 267.641 19.348 268.577 18.676C269.537 18.004 270.629 17.668 271.853 17.668C274.253 17.668 276.065 18.508 277.289 20.188C278.513 21.868 279.125 24.316 279.125 27.532C279.125 30.748 278.513 33.208 277.289 34.912C276.065 36.592 274.253 37.432 271.853 37.432C271.229 37.432 270.641 37.336 270.089 37.144C269.537 36.976 269.033 36.736 268.577 36.424C268.145 36.088 267.773 35.704 267.461 35.272C267.149 34.816 266.921 34.336 266.777 33.832H266.597V37H261.269V10.36ZM270.089 33.112C271.097 33.112 271.925 32.764 272.573 32.068C273.245 31.348 273.581 30.388 273.581 29.188V25.912C273.581 24.712 273.245 23.764 272.573 23.068C271.925 22.348 271.097 21.988 270.089 21.988C269.081 21.988 268.241 22.24 267.569 22.744C266.921 23.224 266.597 23.896 266.597 24.76V30.34C266.597 31.204 266.921 31.888 267.569 32.392C268.241 32.872 269.081 33.112 270.089 33.112ZM290.84 37.432C289.448 37.432 288.2 37.204 287.096 36.748C286.016 36.292 285.092 35.632 284.324 34.768C283.58 33.904 283.004 32.86 282.596 31.636C282.188 30.412 281.984 29.044 281.984 27.532C281.984 26.02 282.188 24.652 282.596 23.428C283.004 22.204 283.58 21.172 284.324 20.332C285.092 19.468 286.016 18.808 287.096 18.352C288.2 17.896 289.448 17.668 290.84 17.668C292.232 17.668 293.468 17.896 294.548 18.352C295.652 18.808 296.576 19.468 297.32 20.332C298.088 21.172 298.676 22.204 299.084 23.428C299.492 24.652 299.695 26.02 299.695 27.532C299.695 29.044 299.492 30.412 299.084 31.636C298.676 32.86 298.088 33.904 297.32 34.768C296.576 35.632 295.652 36.292 294.548 36.748C293.468 37.204 292.232 37.432 290.84 37.432ZM290.84 33.22C291.896 33.22 292.712 32.896 293.288 32.248C293.864 31.6 294.152 30.676 294.152 29.476V25.624C294.152 24.424 293.864 23.5 293.288 22.852C292.712 22.204 291.896 21.88 290.84 21.88C289.784 21.88 288.968 22.204 288.392 22.852C287.816 23.5 287.528 24.424 287.528 25.624V29.476C287.528 30.676 287.816 31.6 288.392 32.248C288.968 32.896 289.784 33.22 290.84 33.22ZM317.46 37C316.5 37 315.696 36.7 315.048 36.1C314.424 35.5 314.028 34.696 313.86 33.688H313.644C313.356 34.912 312.72 35.848 311.736 36.496C310.752 37.12 309.54 37.432 308.1 37.432C306.204 37.432 304.752 36.928 303.744 35.92C302.736 34.912 302.232 33.58 302.232 31.924C302.232 29.932 302.952 28.456 304.392 27.496C305.856 26.512 307.836 26.02 310.332 26.02H313.32V24.832C313.32 23.92 313.08 23.2 312.6 22.672C312.12 22.12 311.316 21.844 310.188 21.844C309.132 21.844 308.292 22.072 307.668 22.528C307.044 22.984 306.528 23.5 306.12 24.076L302.952 21.268C303.72 20.14 304.68 19.264 305.832 18.64C307.008 17.992 308.592 17.668 310.584 17.668C313.272 17.668 315.288 18.256 316.632 19.432C317.976 20.608 318.648 22.324 318.648 24.58V32.86H320.412V37H317.46ZM310.08 33.724C310.968 33.724 311.724 33.532 312.348 33.148C312.996 32.764 313.32 32.14 313.32 31.276V29.044H310.728C308.64 29.044 307.596 29.752 307.596 31.168V31.708C307.596 32.404 307.812 32.92 308.244 33.256C308.676 33.568 309.288 33.724 310.08 33.724ZM323.988 37V18.1H329.316V22.204H329.496C329.592 21.676 329.76 21.172 330 20.692C330.24 20.188 330.552 19.744 330.936 19.36C331.344 18.976 331.824 18.676 332.376 18.46C332.928 18.22 333.576 18.1 334.32 18.1H335.256V23.068H333.924C332.364 23.068 331.2 23.272 330.432 23.68C329.688 24.088 329.316 24.844 329.316 25.948V37H323.988ZM349.994 33.832H349.814C349.67 34.336 349.442 34.816 349.13 35.272C348.818 35.704 348.434 36.088 347.978 36.424C347.546 36.736 347.042 36.976 346.466 37.144C345.914 37.336 345.338 37.432 344.738 37.432C342.338 37.432 340.526 36.592 339.302 34.912C338.078 33.208 337.466 30.748 337.466 27.532C337.466 24.316 338.078 21.868 339.302 20.188C340.526 18.508 342.338 17.668 344.738 17.668C345.962 17.668 347.042 18.004 347.978 18.676C348.938 19.348 349.55 20.212 349.814 21.268H349.994V10.36H355.322V37H349.994V33.832ZM346.502 33.112C347.51 33.112 348.338 32.872 348.986 32.392C349.658 31.888 349.994 31.204 349.994 30.34V24.76C349.994 23.896 349.658 23.224 348.986 22.744C348.338 22.24 347.51 21.988 346.502 21.988C345.494 21.988 344.654 22.348 343.982 23.068C343.334 23.764 343.01 24.712 343.01 25.912V29.188C343.01 30.388 343.334 31.348 343.982 32.068C344.654 32.764 345.494 33.112 346.502 33.112ZM379.804 41.968V9.64H384.34V41.968H379.804Z" fill="white"/>
<defs>
<clipPath id="clip0_1802_864">
<rect width="196" height="28" fill="white" transform="translate(404 9)"/>
</clipPath>
</defs>
</svg>
