<svg width="130" height="130" viewBox="0 0 130 130" fill="none" xmlns="http://www.w3.org/2000/svg">
    <path
        d="M110.5 130H19.5C14.3283 130 9.36838 127.946 5.71142 124.289C2.05446 120.632 0 115.672 0 110.5V6.5C0 4.77609 0.684819 3.12279 1.90381 1.90381C3.12279 0.684819 4.77609 0 6.5 0H97.5C99.2239 0 100.877 0.684819 102.096 1.90381C103.315 3.12279 104 4.77609 104 6.5V52H130V110.5C130 115.672 127.946 120.632 124.289 124.289C120.632 127.946 115.672 130 110.5 130ZM104 65V110.5C104 112.224 104.685 113.877 105.904 115.096C107.123 116.315 108.776 117 110.5 117C112.224 117 113.877 116.315 115.096 115.096C116.315 113.877 117 112.224 117 110.5V65H104ZM19.5 26V65H58.5V26H19.5ZM19.5 71.5V84.5H84.5V71.5H19.5ZM19.5 91V104H84.5V91H19.5ZM32.5 39H45.5V52H32.5V39Z"
        fill="#D9EFE6" />
</svg>