<svg width="150" height="150" fill="none" xmlns="http://www.w3.org/2000/svg">
  <path d="M75 150c41.421 0 75-33.579 75-75S116.421 0 75 0 0 33.579 0 75s33.579 75 75 75Z" fill="#69B0EE"/>
  <path d="M93.735 59.6H56.264V41.326a5.55 5.55 0 0 1 5.544-5.544H88.19a5.55 5.55 0 0 1 5.544 5.544V59.6Zm-31.31-6.163h25.15V41.943h-25.15v11.494Z" fill="#575B6D"/>
  <path d="M119.351 48.923H30.649a3.696 3.696 0 0 0-3.696 3.697v57.902a3.696 3.696 0 0 0 3.696 3.696h88.702a3.696 3.696 0 0 0 3.696-3.696V52.619a3.696 3.696 0 0 0-3.696-3.696Z" fill="#F6B863"/>
  <path d="M103.541 48.923h6.981v65.295h-6.981V48.923ZM39.477 48.923h6.981v65.295h-6.98V48.923Z" fill="#EAA14E"/>
  <path d="M72.8 69.284c-.086.073-.185-.025-.295-.247.098.074.196.161.296.247Z" fill="#EF5261"/>
  <path d="M90.073 75.312c0 4.952-3.364 10.742-8.438 15.461a36.988 36.988 0 0 1-6.628 4.916 35.11 35.11 0 0 1-2.168-1.38c-7.207-4.977-12.91-12.677-12.91-18.997a7.85 7.85 0 0 1 7.86-7.86 7.775 7.775 0 0 1 4.717 1.589c.112.222.21.32.296.246.8.66 1.462 1.473 1.946 2.39.087.173.172.333.259.517v-.007c.025-.049.05-.11.074-.16.194-.434.434-.847.715-1.232a7.734 7.734 0 0 1 4.237-3.019 7.469 7.469 0 0 1 2.181-.32 7.858 7.858 0 0 1 7.859 7.856Z" fill="#EF5261"/>
</svg>