<svg width="40" height="24" fill="none" xmlns="http://www.w3.org/2000/svg">
  <path d="M5.167.063c-1.52.062-2.66.25-3.292.5C1.43.75.798 1.313.545 1.75.102 2.5-.088 3.501.039 4.314c.121.58.39 1.121.783 1.571.391.45.892.794 1.456 1a3.588 3.588 0 0 0 3.395-.508c.76-.625 1.836-2.688 2.786-5.252.253-.687.253-.937.127-1C8.459.063 5.736 0 5.166.063Zm15.764 0C19.348.25 17.892 1.188 16.943 2.5L4.09 23.256c-.063.188-.063.188.064.313.126.125.19.125 1.962.125 1.583-.063 1.773-.063 2.343-.188 1.456-.375 2.596-1.25 3.419-2.5C12.828 19.63 24.666.438 24.73.313l-.127-.188C24.54 0 24.35 0 22.957 0l-2.026.063Zm15.385 0c-1.393.187-2.66.812-3.609 1.813l-6.838 10.877-6.52 10.566c-.064.375.063.375 1.582.375l2.026-.063a5.754 5.754 0 0 0 4.242-2.563C28.402 19.193 39.988.5 39.988.375 40.05 0 39.925 0 38.215 0l-1.963.063h.064Z" fill="#FED138"/>
</svg>