<svg width="141" height="148" viewBox="0 0 141 148" fill="none" xmlns="http://www.w3.org/2000/svg">
    <path
        d="M63.5415 28.7918H42.6665L70.4998 0.958466L98.3332 28.7918H77.4582V59.6172C72.2394 62.818 67.5773 66.7843 63.5415 71.3768V28.7918ZM140.083 70.5418L112.25 42.7085V63.5835C100.164 63.0864 88.3519 67.2737 79.2774 75.2722C70.2028 83.2708 64.5658 94.4634 63.5415 106.516C58.324 108.369 54.0538 112.214 51.6669 117.21C49.2799 122.206 48.971 127.944 50.8078 133.167C52.6602 138.384 56.5057 142.654 61.5013 145.041C66.4969 147.428 72.2351 147.737 77.4582 145.901C82.6711 144.042 86.9365 140.196 89.3225 135.202C91.7085 130.208 92.021 124.473 90.1919 119.25C88.1044 113.266 83.3728 108.604 77.4582 106.516C80.7286 78.683 108.562 77.2914 111.902 77.2914V98.1664L140.083 70.5418ZM60.9669 74.6472C51.7341 67.5217 40.4124 63.6337 28.7498 63.5835V42.7085L0.916504 70.5418L28.7498 98.3751V77.5001C38.074 77.7089 47.0503 80.9793 54.0782 87.2418C55.8178 82.7885 58.114 78.5439 60.9669 74.6472Z"
        fill="#D5DDFB" />
</svg>