<svg width="150" height="150" viewBox="0 0 150 150" fill="none" xmlns="http://www.w3.org/2000/svg">
<path d="M75 150C116.421 150 150 116.421 150 75C150 33.5786 116.421 0 75 0C33.5786 0 0 33.5786 0 75C0 116.421 33.5786 150 75 150Z" fill="#69B0EE"/>
<path d="M93.7354 59.6003H56.2635V41.3261C56.2651 39.8562 56.8497 38.4469 57.8891 37.4075C58.9285 36.3681 60.3378 35.7835 61.8077 35.782H88.1913C89.6612 35.7835 91.0705 36.3681 92.1099 37.4075C93.1493 38.4469 93.7339 39.8562 93.7354 41.3261V59.6003ZM62.4241 53.4374H87.5749V41.9425H62.4241V53.4374Z" fill="#575B6D"/>
<path d="M119.351 48.9234H30.6492C28.6079 48.9234 26.9531 50.5782 26.9531 52.6195V110.522C26.9531 112.563 28.6079 114.218 30.6492 114.218H119.351C121.392 114.218 123.047 112.563 123.047 110.522V52.6195C123.047 50.5782 121.392 48.9234 119.351 48.9234Z" fill="#F6B863"/>
<path d="M103.541 48.9234H110.522V114.218H103.541V48.9234Z" fill="#EAA14E"/>
<path d="M39.4775 48.9234H46.4584V114.218H39.4775V48.9234Z" fill="#EAA14E"/>
<path d="M72.8006 69.2836C72.7138 69.3575 72.6154 69.259 72.5052 69.0375C72.6025 69.1114 72.701 69.1981 72.8006 69.2836Z" fill="#EF5261"/>
<path d="M90.0726 75.3117C90.0726 80.264 86.7093 86.0543 81.6351 90.7734C79.616 92.6542 77.3928 94.3031 75.007 95.6894C74.2675 95.2582 73.541 94.7906 72.839 94.3089C65.632 89.332 59.9285 81.6316 59.9285 75.3117C59.927 73.6071 60.4804 71.9484 61.5049 70.5861C62.5294 69.2237 63.9694 68.2318 65.6074 67.7601C66.3166 67.5569 67.0505 67.4532 67.7882 67.4519C69.4925 67.4502 71.1502 68.0085 72.5062 69.041C72.6175 69.2625 72.716 69.3609 72.8015 69.2871C73.6023 69.9472 74.2639 70.7598 74.748 71.6777C74.8347 71.85 74.9203 72.0105 75.007 72.1945V72.1875C75.0316 72.1382 75.0562 72.0761 75.0808 72.0269C75.2755 71.5926 75.5151 71.1798 75.7957 70.7953C76.8172 69.3299 78.3144 68.2632 80.0332 67.7765C80.7403 67.5626 81.4752 67.4548 82.214 67.4566C84.2977 67.4563 86.2962 68.2837 87.77 69.7567C89.2437 71.2298 90.072 73.228 90.0726 75.3117Z" fill="#EF5261"/>
</svg>
